<svg xmlns="http://www.w3.org/2000/svg" xmlns:xlink="http://www.w3.org/1999/xlink" width="2560" zoomAndPan="magnify" viewBox="0 0 1920 1199.999942" height="1600" preserveAspectRatio="xMidYMid meet" version="1.0"><defs><clipPath id="id1"><path d="M 412 64.09375 L 1508 64.09375 L 1508 896 L 412 896 Z M 412 64.09375 " clip-rule="nonzero"/></clipPath><clipPath id="id2"><path d="M 1507.886719 611.597656 C 1507.886719 309.21875 1262.636719 64.09375 960.117188 64.09375 C 657.597656 64.09375 412.335938 309.21875 412.335938 611.597656 C 412.335938 913.964844 657.597656 1159.089844 960.117188 1159.089844 C 1262.636719 1159.089844 1507.886719 913.964844 1507.886719 611.597656 " clip-rule="nonzero"/></clipPath><clipPath id="id3"><path d="M 955 169 L 1382 169 L 1382 532 L 955 532 Z M 955 169 " clip-rule="nonzero"/></clipPath><clipPath id="id4"><path d="M 1507.886719 611.597656 C 1507.886719 309.21875 1262.636719 64.09375 960.117188 64.09375 C 657.597656 64.09375 412.335938 309.21875 412.335938 611.597656 C 412.335938 913.964844 657.597656 1159.089844 960.117188 1159.089844 C 1262.636719 1159.089844 1507.886719 913.964844 1507.886719 611.597656 " clip-rule="nonzero"/></clipPath><clipPath id="id5"><path d="M 1066 243.628906 L 1508 243.628906 L 1508 480 L 1066 480 Z M 1066 243.628906 " clip-rule="nonzero"/></clipPath><clipPath id="id6"><path d="M 1507.886719 611.597656 C 1507.886719 309.21875 1262.636719 64.09375 960.117188 64.09375 C 657.597656 64.09375 412.335938 309.21875 412.335938 611.597656 C 412.335938 913.964844 657.597656 1159.089844 960.117188 1159.089844 C 1262.636719 1159.089844 1507.886719 913.964844 1507.886719 611.597656 " clip-rule="nonzero"/></clipPath><clipPath id="id7"><path d="M 412 330 L 725 330 L 725 541 L 412 541 Z M 412 330 " clip-rule="nonzero"/></clipPath><clipPath id="id8"><path d="M 1507.886719 611.597656 C 1507.886719 309.21875 1262.636719 64.09375 960.117188 64.09375 C 657.597656 64.09375 412.335938 309.21875 412.335938 611.597656 C 412.335938 913.964844 657.597656 1159.089844 960.117188 1159.089844 C 1262.636719 1159.089844 1507.886719 913.964844 1507.886719 611.597656 " clip-rule="nonzero"/></clipPath><clipPath id="id9"><path d="M 511 152 L 823 152 L 823 314 L 511 314 Z M 511 152 " clip-rule="nonzero"/></clipPath><clipPath id="id10"><path d="M 1507.886719 611.597656 C 1507.886719 309.21875 1262.636719 64.09375 960.117188 64.09375 C 657.597656 64.09375 412.335938 309.21875 412.335938 611.597656 C 412.335938 913.964844 657.597656 1159.089844 960.117188 1159.089844 C 1262.636719 1159.089844 1507.886719 913.964844 1507.886719 611.597656 " clip-rule="nonzero"/></clipPath><clipPath id="id11"><path d="M 792 591 L 800.671875 591 L 800.671875 597 L 792 597 Z M 792 591 " clip-rule="nonzero"/></clipPath><clipPath id="id12"><path d="M 1507.886719 611.597656 C 1507.886719 309.21875 1262.636719 64.09375 960.117188 64.09375 C 657.597656 64.09375 412.335938 309.21875 412.335938 611.597656 C 412.335938 913.964844 657.597656 1159.089844 960.117188 1159.089844 C 1262.636719 1159.089844 1507.886719 913.964844 1507.886719 611.597656 " clip-rule="nonzero"/></clipPath><clipPath id="id13"><path d="M 1353 591 L 1373 591 L 1373 597 L 1353 597 Z M 1353 591 " clip-rule="nonzero"/></clipPath><clipPath id="id14"><path d="M 1507.886719 611.597656 C 1507.886719 309.21875 1262.636719 64.09375 960.117188 64.09375 C 657.597656 64.09375 412.335938 309.21875 412.335938 611.597656 C 412.335938 913.964844 657.597656 1159.089844 960.117188 1159.089844 C 1262.636719 1159.089844 1507.886719 913.964844 1507.886719 611.597656 " clip-rule="nonzero"/></clipPath><clipPath id="id15"><path d="M 812 481 L 1426.800781 481 L 1426.800781 653.996094 L 812 653.996094 Z M 812 481 " clip-rule="nonzero"/></clipPath><clipPath id="id16"><path d="M 1507.886719 611.597656 C 1507.886719 309.21875 1262.636719 64.09375 960.117188 64.09375 C 657.597656 64.09375 412.335938 309.21875 412.335938 611.597656 C 412.335938 913.964844 657.597656 1159.089844 960.117188 1159.089844 C 1262.636719 1159.089844 1507.886719 913.964844 1507.886719 611.597656 " clip-rule="nonzero"/></clipPath><clipPath id="id17"><path d="M 1218.089844 479.589844 L 1221 479.589844 L 1221 483 L 1218.089844 483 Z M 1218.089844 479.589844 " clip-rule="nonzero"/></clipPath><clipPath id="id18"><path d="M 1507.886719 611.597656 C 1507.886719 309.21875 1262.636719 64.09375 960.117188 64.09375 C 657.597656 64.09375 412.335938 309.21875 412.335938 611.597656 C 412.335938 913.964844 657.597656 1159.089844 960.117188 1159.089844 C 1262.636719 1159.089844 1507.886719 913.964844 1507.886719 611.597656 " clip-rule="nonzero"/></clipPath><clipPath id="id19"><path d="M 1218.089844 468 L 1221 468 L 1221 480 L 1218.089844 480 Z M 1218.089844 468 " clip-rule="nonzero"/></clipPath><clipPath id="id20"><path d="M 1507.886719 611.597656 C 1507.886719 309.21875 1262.636719 64.09375 960.117188 64.09375 C 657.597656 64.09375 412.335938 309.21875 412.335938 611.597656 C 412.335938 913.964844 657.597656 1159.089844 960.117188 1159.089844 C 1262.636719 1159.089844 1507.886719 913.964844 1507.886719 611.597656 " clip-rule="nonzero"/></clipPath><clipPath id="id21"><path d="M 1115 591 L 1135 591 L 1135 597 L 1115 597 Z M 1115 591 " clip-rule="nonzero"/></clipPath><clipPath id="id22"><path d="M 1507.886719 611.597656 C 1507.886719 309.21875 1262.636719 64.09375 960.117188 64.09375 C 657.597656 64.09375 412.335938 309.21875 412.335938 611.597656 C 412.335938 913.964844 657.597656 1159.089844 960.117188 1159.089844 C 1262.636719 1159.089844 1507.886719 913.964844 1507.886719 611.597656 " clip-rule="nonzero"/></clipPath><clipPath id="id23"><path d="M 577 468 L 1176 468 L 1176 597 L 577 597 Z M 577 468 " clip-rule="nonzero"/></clipPath><clipPath id="id24"><path d="M 1507.886719 611.597656 C 1507.886719 309.21875 1262.636719 64.09375 960.117188 64.09375 C 657.597656 64.09375 412.335938 309.21875 412.335938 611.597656 C 412.335938 913.964844 657.597656 1159.089844 960.117188 1159.089844 C 1262.636719 1159.089844 1507.886719 913.964844 1507.886719 611.597656 " clip-rule="nonzero"/></clipPath><clipPath id="id25"><path d="M 439 149 L 1487 149 L 1487 893 L 439 893 Z M 439 149 " clip-rule="nonzero"/></clipPath><clipPath id="id26"><path d="M 1507.886719 611.597656 C 1507.886719 309.21875 1262.636719 64.09375 960.117188 64.09375 C 657.597656 64.09375 412.335938 309.21875 412.335938 611.597656 C 412.335938 913.964844 657.597656 1159.089844 960.117188 1159.089844 C 1262.636719 1159.089844 1507.886719 913.964844 1507.886719 611.597656 " clip-rule="nonzero"/></clipPath><clipPath id="id27"><path d="M 756.195312 204 L 774 204 L 774 314 L 756.195312 314 Z M 756.195312 204 " clip-rule="nonzero"/></clipPath><clipPath id="id28"><path d="M 1507.886719 611.597656 C 1507.886719 309.21875 1262.636719 64.09375 960.117188 64.09375 C 657.597656 64.09375 412.335938 309.21875 412.335938 611.597656 C 412.335938 913.964844 657.597656 1159.089844 960.117188 1159.089844 C 1262.636719 1159.089844 1507.886719 913.964844 1507.886719 611.597656 " clip-rule="nonzero"/></clipPath><clipPath id="id29"><path d="M 412 893.378906 L 1508 893.378906 L 1508 1159.09375 L 412 1159.09375 Z M 412 893.378906 " clip-rule="nonzero"/></clipPath><clipPath id="id30"><path d="M 1507.886719 611.597656 C 1507.886719 309.21875 1262.636719 64.09375 960.117188 64.09375 C 657.597656 64.09375 412.335938 309.21875 412.335938 611.597656 C 412.335938 913.964844 657.597656 1159.089844 960.117188 1159.089844 C 1262.636719 1159.089844 1507.886719 913.964844 1507.886719 611.597656 " clip-rule="nonzero"/></clipPath></defs><g clip-path="url(#id1)"><g clip-path="url(#id2)"><path fill="#a7d9da" d="M 232.710938 895.824219 L 1777.355469 895.824219 L 1777.355469 64.09375 L 232.710938 64.09375 Z M 232.710938 895.824219 " fill-opacity="1" fill-rule="nonzero"/></g></g><g clip-path="url(#id3)"><g clip-path="url(#id4)"><path fill="#d3eceb" d="M 1042.367188 531.207031 C 1044.25 527.789062 1045.347656 523.925781 1045.347656 519.734375 C 1045.347656 508.804688 1038.050781 499.589844 1028.078125 496.621094 C 1028.84375 494.285156 1029.257812 491.785156 1029.257812 489.195312 C 1029.257812 475.878906 1018.445312 465.070312 1005.132812 465.070312 C 998.074219 465.070312 991.765625 468.117188 987.34375 472.9375 C 986.421875 460.449219 976.035156 450.601562 963.300781 450.601562 C 960.453125 450.601562 957.726562 451.109375 955.214844 452.019531 C 956.523438 436.695312 966.226562 423.367188 980.207031 417.355469 C 978.414062 413.480469 977.1875 409.285156 976.652344 404.835938 C 973.910156 381.980469 990.230469 361.234375 1013.097656 358.511719 C 1014.769531 358.296875 1016.425781 358.203125 1018.070312 358.203125 C 1028.308594 358.203125 1037.851562 361.996094 1045.226562 368.34375 C 1044.238281 346.730469 1060.050781 327.707031 1081.875 325.089844 C 1083.558594 324.902344 1085.214844 324.792969 1086.875 324.792969 C 1102.964844 324.792969 1117.359375 334.117188 1124.230469 348.132812 C 1125.015625 347.996094 1125.792969 347.824219 1126.582031 347.730469 C 1128.25 347.53125 1129.921875 347.4375 1131.566406 347.4375 C 1139.558594 347.4375 1147.121094 349.722656 1153.550781 353.742188 C 1140.761719 354.902344 1130.628906 365.191406 1129.679688 378.027344 C 1124.855469 372.765625 1117.945312 369.453125 1110.25 369.453125 C 1095.695312 369.453125 1083.878906 381.246094 1083.878906 395.792969 C 1083.878906 398.640625 1084.347656 401.351562 1085.175781 403.914062 C 1074.269531 407.148438 1066.316406 417.222656 1066.316406 429.175781 C 1066.316406 435.640625 1068.65625 441.558594 1072.519531 446.140625 C 1069.710938 450.324219 1068.070312 455.359375 1068.070312 460.796875 C 1068.070312 468.15625 1071.101562 474.726562 1075.992188 479.523438 L 1075.699219 479.953125 L 1218.90625 479.953125 L 1218.90625 482.515625 L 1042.367188 531.207031 M 1220.804688 481.980469 L 1220.804688 479.953125 L 1228.167969 479.953125 L 1220.804688 481.980469 M 1205.984375 386.015625 C 1201.679688 377.253906 1192.726562 371.203125 1182.300781 371.203125 C 1181.792969 371.203125 1181.296875 371.253906 1180.804688 371.28125 C 1179.371094 367.195312 1176.953125 363.558594 1173.851562 360.675781 C 1181.230469 355.597656 1189.785156 352.03125 1199.140625 350.414062 C 1204.046875 333.425781 1215.898438 319.144531 1231.75 311.117188 C 1227.339844 305.625 1224.320312 298.90625 1223.425781 291.386719 C 1221.257812 273.3125 1231.882812 256.679688 1248.164062 250.46875 C 1234.972656 245.539062 1224.90625 233.625 1223.128906 218.664062 C 1220.578125 197.34375 1235.800781 177.984375 1257.132812 175.433594 C 1258.707031 175.246094 1260.257812 175.152344 1261.796875 175.152344 C 1268.238281 175.152344 1274.398438 176.757812 1279.839844 179.601562 C 1280.8125 176.195312 1282.070312 172.871094 1283.566406 169.691406 C 1319.800781 196.234375 1352.664062 227.132812 1381.375 261.597656 C 1375.210938 262.15625 1369.425781 264.027344 1364.292969 266.898438 C 1356.40625 257.132812 1344.339844 250.882812 1330.800781 250.882812 C 1312.96875 250.882812 1297.667969 261.714844 1291.132812 277.171875 C 1287.175781 274.445312 1282.378906 272.84375 1277.207031 272.84375 C 1263.613281 272.84375 1252.601562 283.851562 1252.601562 297.4375 C 1252.601562 306.949219 1258.027344 315.191406 1265.925781 319.277344 C 1255.246094 321.949219 1247.335938 331.59375 1247.335938 343.109375 C 1247.335938 347.890625 1248.710938 352.339844 1251.089844 356.121094 C 1240.53125 359.96875 1231.992188 368.035156 1227.648438 378.335938 C 1219.5625 378.761719 1212.117188 381.527344 1205.984375 386.015625 " fill-opacity="1" fill-rule="nonzero"/></g></g><g clip-path="url(#id5)"><g clip-path="url(#id6)"><path fill="#ffffff" d="M 1530.273438 274.59375 C 1530.273438 282.863281 1533.535156 290.355469 1538.867188 295.875 C 1537.035156 299.492188 1535.914062 303.515625 1535.644531 307.761719 C 1530.21875 302.992188 1523.125 300.066406 1515.332031 300.066406 C 1512.363281 300.066406 1509.492188 300.507812 1506.765625 301.296875 C 1502.113281 290.261719 1491.167969 282.5 1478.429688 282.5 C 1463.195312 282.5 1450.578125 293.574219 1448.132812 308.097656 C 1442.824219 303.261719 1435.835938 300.269531 1428.125 300.09375 C 1425.933594 278.386719 1407.59375 261.421875 1385.289062 261.421875 C 1377.65625 261.421875 1370.507812 263.425781 1364.292969 266.898438 C 1356.40625 257.132812 1344.339844 250.882812 1330.800781 250.882812 C 1312.96875 250.882812 1297.667969 261.714844 1291.132812 277.171875 C 1287.175781 274.445312 1282.378906 272.84375 1277.207031 272.84375 C 1263.613281 272.84375 1252.601562 283.851562 1252.601562 297.4375 C 1252.601562 306.949219 1258.027344 315.191406 1265.925781 319.277344 C 1255.246094 321.949219 1247.335938 331.59375 1247.335938 343.109375 C 1247.335938 347.890625 1248.710938 352.339844 1251.089844 356.121094 C 1240.53125 359.96875 1231.992188 368.035156 1227.648438 378.335938 C 1219.5625 378.761719 1212.117188 381.527344 1205.984375 386.015625 C 1201.679688 377.253906 1192.726562 371.203125 1182.300781 371.203125 C 1181.792969 371.203125 1181.296875 371.253906 1180.804688 371.28125 C 1177.195312 361.007812 1167.4375 353.648438 1155.945312 353.648438 C 1142.042969 353.648438 1130.683594 364.402344 1129.679688 378.027344 C 1124.855469 372.765625 1117.945312 369.453125 1110.25 369.453125 C 1095.695312 369.453125 1083.878906 381.246094 1083.878906 395.792969 C 1083.878906 398.640625 1084.347656 401.351562 1085.175781 403.914062 C 1074.269531 407.148438 1066.316406 417.222656 1066.316406 429.175781 C 1066.316406 435.640625 1068.65625 441.558594 1072.519531 446.140625 C 1069.710938 450.324219 1068.070312 455.359375 1068.070312 460.796875 C 1068.070312 468.15625 1071.101562 474.726562 1075.992188 479.523438 L 1075.699219 479.953125 L 1567 479.953125 L 1567 244.324219 C 1564.714844 244.03125 1563.179688 243.855469 1561.402344 243.855469 C 1544.402344 243.855469 1530.273438 257.628906 1530.273438 274.59375 " fill-opacity="1" fill-rule="nonzero"/></g></g><g clip-path="url(#id7)"><g clip-path="url(#id8)"><path fill="#ffffff" d="M 724.199219 493.992188 C 724.199219 483.050781 716.914062 473.832031 706.945312 470.867188 C 707.691406 468.53125 708.121094 466.03125 708.121094 463.441406 C 708.121094 450.121094 697.308594 439.328125 683.980469 439.328125 C 676.9375 439.328125 670.617188 442.359375 666.191406 447.183594 C 665.285156 434.707031 654.898438 424.847656 642.175781 424.847656 C 639.328125 424.847656 636.601562 425.355469 634.078125 426.265625 C 627.234375 428.707031 621.820312 434.144531 619.402344 441 C 618.960938 440.972656 618.507812 440.933594 618.039062 440.933594 C 608.507812 440.933594 600.304688 446.460938 596.359375 454.492188 C 590.746094 450.390625 583.929688 447.839844 576.527344 447.464844 C 572.558594 438.03125 564.738281 430.644531 555.074219 427.121094 C 557.253906 423.660156 558.523438 419.585938 558.523438 415.203125 C 558.523438 404.675781 551.265625 395.859375 541.496094 393.402344 C 548.726562 389.664062 553.699219 382.113281 553.699219 373.40625 C 553.699219 360.980469 543.621094 350.898438 531.179688 350.898438 C 526.433594 350.898438 522.0625 352.367188 518.429688 354.863281 C 512.453125 340.730469 498.433594 330.804688 482.117188 330.804688 C 469.726562 330.804688 458.6875 336.523438 451.46875 345.460938 C 445.777344 342.28125 439.226562 340.449219 432.265625 340.449219 C 411.828125 340.449219 395.054688 355.972656 393.039062 375.851562 C 385.992188 375.996094 379.085938 378.75 374.21875 383.171875 C 372.386719 372.269531 365.800781 363.507812 353.234375 360.703125 L 353.234375 540.503906 L 715.617188 540.503906 L 715.351562 540.089844 C 719.8125 535.710938 722.59375 529.644531 722.59375 522.898438 C 722.59375 517.941406 721.082031 513.335938 718.519531 509.5 C 719.546875 508.269531 720.457031 506.933594 721.230469 505.519531 C 723.128906 502.085938 724.199219 498.171875 724.199219 493.992188 " fill-opacity="1" fill-rule="nonzero"/></g></g><g clip-path="url(#id9)"><g clip-path="url(#id10)"><path fill="#c2e4e4" d="M 755.832031 313.441406 C 744.671875 313.441406 735.585938 304.714844 734.929688 293.734375 C 726.75 304.023438 714.132812 310.648438 699.953125 310.648438 C 679.265625 310.648438 661.890625 296.582031 656.8125 277.492188 C 649.234375 283.371094 639.757812 286.910156 629.425781 286.910156 C 626.019531 286.910156 622.730469 286.496094 619.550781 285.789062 C 611.371094 295.019531 599.449219 300.871094 586.121094 300.871094 C 567.210938 300.871094 551.066406 289.113281 544.542969 272.511719 C 542.605469 272.761719 540.628906 272.949219 538.625 272.949219 C 537.996094 272.949219 537.378906 272.882812 536.765625 272.855469 C 532.101562 284.4375 522.730469 293.628906 511.011719 298.039062 C 543.609375 251.496094 583.289062 210.21875 628.449219 175.820312 C 629.199219 176.8125 629.921875 177.8125 630.601562 178.855469 C 636.027344 176.53125 641.988281 175.222656 648.257812 175.222656 C 651.546875 175.222656 654.753906 175.59375 657.851562 176.277344 C 665.417969 162.34375 680.171875 152.871094 697.160156 152.871094 C 721.429688 152.871094 741.132812 172.214844 741.800781 196.300781 C 750.632812 196.835938 758.785156 199.921875 765.496094 204.851562 L 756.6875 265.003906 L 756.6875 313.425781 C 756.40625 313.441406 756.128906 313.441406 755.832031 313.441406 M 801.96875 310.648438 C 793.855469 310.648438 786.8125 306.027344 783.351562 299.28125 C 780.679688 300.871094 777.644531 301.898438 774.398438 302.179688 C 774.144531 302.660156 773.890625 303.113281 773.609375 303.566406 L 773.609375 212.503906 C 779.957031 220.199219 783.765625 230.070312 783.765625 240.835938 C 783.765625 248.222656 781.933594 255.171875 778.765625 261.316406 C 784.195312 262.972656 788.65625 266.792969 791.210938 271.75 C 794.351562 269.863281 798.039062 268.757812 801.96875 268.757812 C 813.542969 268.757812 822.925781 278.132812 822.925781 289.703125 C 822.925781 301.269531 813.542969 310.648438 801.96875 310.648438 " fill-opacity="1" fill-rule="nonzero"/></g></g><g clip-path="url(#id11)"><g clip-path="url(#id12)"><path fill="#506668" d="M 800.417969 596.089844 L 792.320312 596.089844 L 792.320312 591.722656 C 795.539062 592.136719 798.402344 593.738281 800.417969 596.089844 " fill-opacity="1" fill-rule="nonzero"/></g></g><g clip-path="url(#id13)"><g clip-path="url(#id14)"><path fill="#506668" d="M 1372.550781 596.089844 L 1353.039062 596.089844 C 1355.40625 593.351562 1358.894531 591.613281 1362.796875 591.613281 C 1366.699219 591.613281 1370.1875 593.351562 1372.550781 596.089844 " fill-opacity="1" fill-rule="nonzero"/></g></g><g clip-path="url(#id15)"><g clip-path="url(#id16)"><path fill="#506668" d="M 1398.386719 653.785156 L 1398.386719 539.703125 L 1426.507812 539.703125 L 1426.507812 565.9375 L 1398.386719 653.785156 M 1252.949219 596.089844 L 1250.582031 596.089844 L 1250.582031 584.90625 L 1250.875 584.90625 C 1251.785156 584.90625 1252.558594 584.402344 1252.949219 583.652344 L 1252.949219 596.089844 M 871.761719 596.089844 L 814.945312 596.089844 L 814.945312 594.59375 L 814.398438 594.59375 C 813.449219 594.59375 812.6875 593.832031 812.6875 592.894531 C 812.6875 591.949219 813.449219 591.1875 814.398438 591.1875 L 818.046875 591.1875 L 818.046875 569.71875 L 815.09375 569.71875 L 819.757812 541.199219 L 866.949219 541.199219 L 871.613281 569.71875 L 868.660156 569.71875 L 868.660156 591.1875 L 872.308594 591.1875 C 873.257812 591.1875 874.019531 591.949219 874.019531 592.894531 C 874.019531 593.832031 873.257812 594.59375 872.308594 594.59375 L 871.761719 594.59375 L 871.761719 596.089844 M 1252.949219 581.542969 C 1252.558594 580.792969 1251.785156 580.285156 1250.875 580.285156 L 1243.605469 580.285156 L 1243.605469 545.421875 L 1250.714844 545.421875 L 1256.808594 560.0625 L 1252.949219 560.0625 L 1252.949219 581.542969 M 1220.804688 492.800781 L 1218.90625 492.800781 L 1218.90625 482.515625 L 1220.804688 481.980469 L 1220.804688 492.800781 " fill-opacity="1" fill-rule="nonzero"/></g></g><g clip-path="url(#id17)"><g clip-path="url(#id18)"><path fill="#666f70" d="M 1218.90625 482.515625 L 1218.90625 479.953125 L 1220.804688 479.953125 L 1220.804688 481.980469 L 1218.90625 482.515625 " fill-opacity="1" fill-rule="nonzero"/></g></g><g clip-path="url(#id19)"><g clip-path="url(#id20)"><path fill="#7b7979" d="M 1218.90625 479.953125 L 1220.804688 479.953125 L 1220.804688 468.464844 L 1218.90625 468.464844 Z M 1218.90625 479.953125 " fill-opacity="1" fill-rule="nonzero"/></g></g><g clip-path="url(#id21)"><g clip-path="url(#id22)"><path fill="#506668" d="M 1134.640625 596.089844 L 1115.140625 596.089844 C 1117.492188 593.351562 1120.980469 591.613281 1124.898438 591.613281 C 1128.785156 591.613281 1132.289062 593.351562 1134.640625 596.089844 " fill-opacity="1" fill-rule="nonzero"/></g></g><g clip-path="url(#id23)"><g clip-path="url(#id24)"><path fill="#506668" d="M 1169.015625 596.089844 L 1160.476562 596.089844 L 1160.476562 539.703125 L 1175.976562 539.703125 L 1175.976562 580.285156 L 1168.707031 580.285156 C 1167.425781 580.285156 1166.394531 581.328125 1166.394531 582.597656 C 1166.394531 583.878906 1167.425781 584.90625 1168.707031 584.90625 L 1169.015625 584.90625 L 1169.015625 596.089844 M 1015.035156 596.089844 L 952.859375 596.089844 L 952.859375 545.421875 L 966.882812 545.421875 L 966.882812 526.585938 L 964.78125 526.585938 C 963.605469 526.585938 962.65625 525.625 962.65625 524.449219 C 962.65625 523.273438 963.605469 522.3125 964.78125 522.3125 L 972.242188 522.3125 L 972.242188 508.539062 L 970.878906 508.539062 C 970.117188 508.539062 969.515625 507.925781 969.515625 507.164062 C 969.515625 506.402344 970.117188 505.785156 970.878906 505.785156 L 981.007812 505.785156 L 981.007812 468.464844 L 982.90625 468.464844 L 982.90625 505.785156 L 993.035156 505.785156 C 993.785156 505.785156 994.398438 506.402344 994.398438 507.164062 C 994.398438 507.925781 993.785156 508.539062 993.035156 508.539062 L 991.671875 508.539062 L 991.671875 522.3125 L 999.132812 522.3125 C 1000.308594 522.3125 1001.269531 523.273438 1001.269531 524.449219 C 1001.269531 525.625 1000.308594 526.585938 999.132812 526.585938 L 997.03125 526.585938 L 997.03125 545.421875 L 1012.816406 545.421875 L 1018.898438 560.0625 L 1015.035156 560.0625 L 1015.035156 596.089844 M 737.992188 596.089844 L 705.648438 596.089844 L 705.648438 576.089844 L 700.128906 576.089844 L 717.019531 546.875 L 736.800781 546.875 L 737.992188 548.921875 L 737.992188 596.089844 M 633.851562 596.089844 L 603.335938 596.089844 L 603.335938 588.863281 L 603.644531 588.863281 C 604.191406 588.863281 604.621094 588.421875 604.621094 587.886719 C 604.621094 587.339844 604.191406 586.910156 603.644531 586.910156 L 597.269531 586.910156 C 596.628906 576.414062 588.085938 568.035156 577.515625 567.6875 L 581.859375 541.199219 L 629.050781 541.199219 L 633.714844 569.71875 L 630.761719 569.71875 L 630.761719 591.1875 L 634.410156 591.1875 C 635.359375 591.1875 636.109375 591.949219 636.109375 592.894531 C 636.109375 593.832031 635.359375 594.59375 634.410156 594.59375 L 633.851562 594.59375 L 633.851562 596.089844 " fill-opacity="1" fill-rule="nonzero"/></g></g><g clip-path="url(#id25)"><g clip-path="url(#id26)"><path fill="#7da1a3" d="M 559.953125 892.21875 L 489.667969 892.21875 C 469.164062 857.964844 452.3125 821.285156 439.613281 782.707031 L 439.613281 766.128906 L 449.53125 766.128906 L 449.53125 701.753906 L 460.265625 701.753906 L 460.265625 670.347656 L 499.570312 642.335938 L 499.570312 701.753906 L 510.316406 701.753906 L 510.316406 766.128906 L 520.21875 766.128906 L 520.21875 803.265625 L 526.460938 803.265625 L 526.460938 745.96875 L 525.859375 745.96875 C 524.84375 745.96875 524.003906 745.128906 524.003906 744.113281 C 524.003906 743.085938 524.84375 742.257812 525.859375 742.257812 L 533.023438 742.257812 L 533.023438 665.6875 L 532.503906 665.6875 C 531.605469 665.6875 530.886719 664.953125 530.886719 664.070312 C 530.886719 663.175781 531.605469 662.453125 532.503906 662.453125 L 541.230469 662.453125 L 541.230469 620.132812 L 540.800781 620.132812 C 540.082031 620.132812 539.492188 619.546875 539.492188 618.824219 C 539.492188 618.105469 540.082031 617.503906 540.800781 617.503906 L 550.316406 617.503906 L 550.316406 588.863281 L 549.996094 588.863281 C 549.460938 588.863281 549.023438 588.421875 549.023438 587.886719 C 549.023438 587.339844 549.460938 586.910156 549.996094 586.910156 L 556.371094 586.910156 C 557.027344 576.183594 565.929688 567.675781 576.820312 567.675781 C 577.0625 567.675781 577.289062 567.675781 577.515625 567.6875 C 588.085938 568.035156 596.628906 576.414062 597.269531 586.910156 L 603.644531 586.910156 C 604.191406 586.910156 604.621094 587.339844 604.621094 587.886719 C 604.621094 588.421875 604.191406 588.863281 603.644531 588.863281 L 603.335938 588.863281 L 603.335938 596.089844 L 559.953125 596.089844 L 559.953125 892.21875 M 1446.769531 863.164062 C 1437.828125 850.6875 1421.84375 844.261719 1407.714844 840.933594 L 1407.714844 824.464844 L 1394.429688 824.464844 L 1394.429688 666.140625 L 1398.386719 653.785156 L 1426.507812 565.9375 L 1426.507812 509.820312 L 1426.160156 509.820312 C 1425.558594 509.820312 1425.0625 509.328125 1425.0625 508.726562 C 1425.0625 508.125 1425.558594 507.644531 1426.160156 507.644531 L 1485.660156 507.644531 C 1486.277344 507.644531 1486.757812 508.125 1486.757812 508.726562 C 1486.757812 509.328125 1486.277344 509.820312 1485.660156 509.820312 L 1485.3125 509.820312 L 1485.3125 767.648438 C 1475.4375 800.914062 1462.472656 832.878906 1446.769531 863.164062 M 1250.582031 596.089844 L 1169.015625 596.089844 L 1169.015625 584.90625 L 1168.707031 584.90625 C 1167.425781 584.90625 1166.394531 583.878906 1166.394531 582.597656 C 1166.394531 581.328125 1167.425781 580.285156 1168.707031 580.285156 L 1175.976562 580.285156 L 1175.976562 539.277344 L 1167.222656 539.277344 L 1194.0625 492.800781 L 1225.523438 492.800781 L 1252.375 539.277344 L 1243.605469 539.277344 L 1243.605469 580.285156 L 1250.875 580.285156 C 1251.785156 580.285156 1252.558594 580.792969 1252.949219 581.542969 C 1253.109375 581.863281 1253.203125 582.222656 1253.203125 582.597656 C 1253.203125 582.984375 1253.109375 583.34375 1252.949219 583.652344 C 1252.558594 584.402344 1251.785156 584.90625 1250.875 584.90625 L 1250.582031 584.90625 L 1250.582031 596.089844 M 952.859375 596.089844 L 877.46875 596.089844 L 877.46875 494.191406 L 877.015625 494.191406 C 876.238281 494.191406 875.609375 493.578125 875.609375 492.800781 C 875.609375 492.039062 876.238281 491.414062 877.015625 491.414062 L 953.300781 491.414062 C 954.078125 491.414062 954.707031 492.039062 954.707031 492.800781 C 954.707031 493.578125 954.078125 494.191406 953.300781 494.191406 L 952.859375 494.191406 L 952.859375 596.089844 M 792.320312 596.089844 L 737.992188 596.089844 L 737.992188 375.597656 L 730.933594 375.597656 L 751.785156 339.527344 L 750.21875 339.527344 C 749.191406 339.527344 748.363281 338.699219 748.363281 337.671875 C 748.363281 336.644531 749.191406 335.816406 750.21875 335.816406 L 752.039062 335.816406 L 752.039062 317.820312 L 750.21875 317.820312 C 749.191406 317.820312 748.363281 316.992188 748.363281 315.964844 C 748.363281 314.949219 749.191406 314.109375 750.21875 314.109375 L 756.6875 314.109375 L 756.6875 313.425781 C 763.824219 313.132812 770.054688 309.273438 773.609375 303.566406 L 773.609375 314.109375 L 780.078125 314.109375 C 781.105469 314.109375 781.933594 314.949219 781.933594 315.964844 C 781.933594 316.992188 781.105469 317.820312 780.078125 317.820312 L 778.257812 317.820312 L 778.257812 335.816406 L 780.078125 335.816406 C 781.105469 335.816406 781.933594 336.644531 781.933594 337.671875 C 781.933594 338.699219 781.105469 339.527344 780.078125 339.527344 L 778.527344 339.527344 L 799.363281 375.597656 L 792.320312 375.597656 L 792.320312 596.089844 M 773.609375 212.503906 C 771.230469 209.632812 768.503906 207.054688 765.496094 204.851562 L 773.609375 149.464844 L 773.609375 212.503906 " fill-opacity="1" fill-rule="nonzero"/></g></g><g clip-path="url(#id27)"><g clip-path="url(#id28)"><path fill="#91aaab" d="M 756.6875 313.425781 L 756.6875 265.003906 L 765.496094 204.851562 C 768.503906 207.054688 771.230469 209.632812 773.609375 212.503906 L 773.609375 303.566406 C 770.054688 309.273438 763.824219 313.132812 756.6875 313.425781 " fill-opacity="1" fill-rule="nonzero"/></g></g><g clip-path="url(#id29)"><g clip-path="url(#id30)"><path fill="#d5b98d" d="M 232.710938 1174.558594 L 1777.355469 1174.558594 L 1777.355469 893.472656 L 232.710938 893.472656 Z M 232.710938 1174.558594 " fill-opacity="1" fill-rule="nonzero"/></g></g><path fill="#d5b98d" d="M 1540.75 980.261719 L 1496.164062 980.261719 C 1507.351562 980.261719 1516.414062 968.785156 1516.414062 954.613281 C 1516.414062 940.441406 1507.351562 928.953125 1496.164062 928.953125 L 452.644531 928.953125 C 441.460938 928.953125 432.398438 940.441406 432.398438 954.613281 C 432.398438 968.785156 441.460938 980.261719 452.644531 980.261719 L 379.5 980.261719 C 368.3125 980.261719 359.222656 991.75 359.222656 1005.910156 C 359.222656 1020.082031 368.3125 1031.570312 379.5 1031.570312 L 463.683594 1031.570312 C 461.105469 1035.871094 459.554688 1041.214844 459.554688 1047.027344 C 459.554688 1061.1875 468.628906 1072.6875 479.804688 1072.6875 L 619.734375 1072.6875 C 608.5625 1072.6875 599.488281 1084.164062 599.488281 1098.335938 C 599.488281 1112.496094 608.5625 1123.984375 619.734375 1123.984375 L 1494.066406 1123.984375 C 1505.253906 1123.984375 1514.316406 1112.496094 1514.316406 1098.335938 C 1514.316406 1084.164062 1505.253906 1072.6875 1494.066406 1072.6875 L 1485.460938 1072.6875 C 1496.648438 1072.6875 1505.722656 1061.1875 1505.722656 1047.027344 C 1505.722656 1041.214844 1504.171875 1035.871094 1501.605469 1031.570312 L 1540.75 1031.570312 C 1551.925781 1031.570312 1561 1020.082031 1561 1005.910156 C 1561 991.75 1551.925781 980.261719 1540.75 980.261719 " fill-opacity="1" fill-rule="nonzero"/><path fill="#697c92" d="M 559.953125 596.089844 L 720.617188 491.210938 L 902.289062 596.089844 Z M 559.953125 596.089844 " fill-opacity="1" fill-rule="nonzero"/><path fill="#7ecbda" d="M 902.289062 943.070312 L 1394.429688 943.070312 L 1394.429688 596.089844 L 902.289062 596.089844 Z M 902.289062 943.070312 " fill-opacity="1" fill-rule="nonzero"/><path fill="#dfd9d0" d="M 1394.429688 596.089844 L 902.289062 596.089844 L 720.617188 491.210938 L 1212.757812 491.210938 L 1394.429688 596.089844 " fill-opacity="1" fill-rule="nonzero"/><path fill="#74a9c0" d="M 559.953125 943.070312 L 902.300781 943.070312 L 902.300781 596.089844 L 559.953125 596.089844 Z M 559.953125 943.070312 " fill-opacity="1" fill-rule="nonzero"/><path fill="#61868d" d="M 948.144531 699.253906 L 948.144531 943.070312 L 960.800781 943.070312 L 960.800781 711.625 L 1323.273438 711.625 L 1323.273438 943.070312 L 1335.933594 943.070312 L 1335.933594 699.253906 L 948.144531 699.253906 " fill-opacity="1" fill-rule="nonzero"/><path fill="#191f25" d="M 1215.019531 943.070312 L 1215.019531 824.464844 L 960.800781 824.464844 L 960.800781 711.625 L 1323.273438 711.625 L 1323.273438 824.464844 L 1215.019531 824.464844 L 1215.019531 943.070312 " fill-opacity="1" fill-rule="nonzero"/><path fill="#ffffff" d="M 1156.078125 750.125 L 1128.011719 750.125 L 1128.011719 742.042969 L 1156.078125 742.042969 L 1156.078125 750.125 " fill-opacity="1" fill-rule="nonzero"/><path fill="#ffffff" d="M 1323.273438 746.332031 L 960.800781 746.332031 L 960.800781 711.625 L 1323.273438 711.625 L 1323.273438 746.332031 " fill-opacity="1" fill-rule="nonzero"/><path fill="#bbbaba" d="M 1323.273438 746.332031 L 960.800781 746.332031 L 960.800781 737.769531 L 1323.273438 737.769531 L 1323.273438 746.332031 " fill-opacity="1" fill-rule="nonzero"/><path fill="#bbbaba" d="M 1323.273438 733.71875 L 960.800781 733.71875 L 960.800781 730.648438 L 1323.273438 730.648438 L 1323.273438 733.71875 " fill-opacity="1" fill-rule="nonzero"/><path fill="#bbbaba" d="M 1323.273438 725.878906 L 960.800781 725.878906 L 960.800781 722.804688 L 1323.273438 722.804688 L 1323.273438 725.878906 " fill-opacity="1" fill-rule="nonzero"/><path fill="#bbbaba" d="M 1323.273438 718.050781 L 960.800781 718.050781 L 960.800781 714.964844 L 1323.273438 714.964844 L 1323.273438 718.050781 " fill-opacity="1" fill-rule="nonzero"/><path fill="#61868d" d="M 592.886719 671.257812 L 592.886719 868 L 601.867188 868 L 601.867188 681.234375 L 859.292969 681.234375 L 859.292969 868 L 868.285156 868 L 868.285156 671.257812 L 592.886719 671.257812 " fill-opacity="1" fill-rule="nonzero"/><path fill="#191d24" d="M 716.070312 868 L 601.867188 868 L 601.867188 681.234375 L 859.292969 681.234375 L 859.292969 824.464844 L 716.070312 824.464844 L 716.070312 868 " fill-opacity="1" fill-rule="nonzero"/><path fill="#ffffff" d="M 740.542969 712.320312 L 720.617188 712.320312 L 720.617188 705.789062 L 740.542969 705.789062 L 740.542969 712.320312 " fill-opacity="1" fill-rule="nonzero"/><path fill="#ffffff" d="M 859.292969 709.234375 L 601.867188 709.234375 L 601.867188 681.234375 L 859.292969 681.234375 L 859.292969 709.234375 " fill-opacity="1" fill-rule="nonzero"/><path fill="#bbbaba" d="M 859.292969 709.234375 L 601.867188 709.234375 L 601.867188 702.339844 L 859.292969 702.339844 L 859.292969 709.234375 " fill-opacity="1" fill-rule="nonzero"/><path fill="#bbbaba" d="M 859.292969 699.070312 L 601.867188 699.070312 L 601.867188 696.582031 L 859.292969 696.582031 L 859.292969 699.070312 " fill-opacity="1" fill-rule="nonzero"/><path fill="#bbbaba" d="M 859.292969 692.738281 L 601.867188 692.738281 L 601.867188 690.265625 L 859.292969 690.265625 L 859.292969 692.738281 " fill-opacity="1" fill-rule="nonzero"/><path fill="#bbbaba" d="M 859.292969 686.417969 L 601.867188 686.417969 L 601.867188 683.945312 L 859.292969 683.945312 L 859.292969 686.417969 " fill-opacity="1" fill-rule="nonzero"/><path fill="#74a9c0" d="M 655.300781 943.070312 L 379.898438 943.070312 L 379.898438 868 L 655.300781 868 L 655.300781 943.070312 " fill-opacity="1" fill-rule="nonzero"/><path fill="#7ecbda" d="M 868.285156 943.070312 L 592.886719 943.070312 L 592.886719 868 L 868.285156 868 L 868.285156 943.070312 " fill-opacity="1" fill-rule="nonzero"/><path fill="#697c92" d="M 1394.429688 612.453125 L 541.375 612.453125 L 541.375 586.777344 L 1394.429688 586.777344 L 1394.429688 612.453125 " fill-opacity="1" fill-rule="nonzero"/><path fill="#697c92" d="M 1022.507812 631.703125 L 1031.3125 631.703125 L 1022.613281 687.351562 L 1014.609375 687.351562 L 1009.824219 656.734375 L 1005.347656 687.351562 L 997.3125 687.351562 L 988 631.703125 L 996.792969 631.703125 L 1001.191406 661.503906 L 1005.238281 631.703125 L 1014.035156 631.703125 L 1018.429688 661.476562 L 1022.507812 631.703125 " fill-opacity="1" fill-rule="nonzero"/><path fill="#697c92" d="M 1045.441406 644.445312 L 1042.339844 666.394531 L 1048.554688 666.394531 Z M 1041.042969 674.570312 L 1039 687.351562 L 1030.257812 687.351562 L 1039.722656 631.703125 L 1051.269531 631.703125 L 1060.597656 687.351562 L 1051.777344 687.351562 L 1049.8125 674.570312 L 1041.042969 674.570312 " fill-opacity="1" fill-rule="nonzero"/><path fill="#697c92" d="M 1085.925781 645.113281 C 1085.925781 641.894531 1084.332031 640.277344 1081.125 640.277344 L 1076.0625 640.277344 L 1076.0625 658.085938 L 1081.125 658.085938 C 1082.460938 658.085938 1083.597656 657.617188 1084.535156 656.65625 C 1085.457031 655.722656 1085.925781 654.570312 1085.925781 653.234375 Z M 1080.914062 631.703125 C 1085.589844 631.703125 1089.023438 632.984375 1091.21875 635.5625 C 1093.140625 637.820312 1094.105469 640.960938 1094.105469 644.980469 L 1094.105469 653.0625 C 1094.105469 657.003906 1092.605469 660.34375 1089.613281 663.054688 L 1095.839844 687.351562 L 1086.753906 687.351562 L 1081.660156 666.394531 L 1076.0625 666.394531 L 1076.0625 687.351562 L 1067.667969 687.351562 L 1067.667969 631.703125 L 1080.914062 631.703125 " fill-opacity="1" fill-rule="nonzero"/><path fill="#697c92" d="M 1103.03125 687.351562 L 1103.03125 631.664062 L 1126.941406 631.664062 L 1126.941406 640.105469 L 1111.4375 640.105469 L 1111.4375 655.292969 L 1122.773438 655.292969 L 1122.773438 663.722656 L 1111.4375 663.722656 L 1111.4375 678.910156 L 1126.941406 678.910156 L 1126.941406 687.351562 L 1103.03125 687.351562 " fill-opacity="1" fill-rule="nonzero"/><path fill="#697c92" d="M 1141.121094 663.761719 L 1141.121094 687.351562 L 1132.714844 687.351562 L 1132.714844 631.703125 L 1141.121094 631.703125 L 1141.121094 655.332031 L 1151.253906 655.332031 L 1151.253906 631.703125 L 1159.644531 631.703125 L 1159.644531 687.351562 L 1151.253906 687.351562 L 1151.253906 663.761719 L 1141.121094 663.761719 " fill-opacity="1" fill-rule="nonzero"/><path fill="#697c92" d="M 1184.933594 644.140625 C 1184.933594 642.804688 1184.464844 641.667969 1183.53125 640.734375 C 1182.59375 639.8125 1181.472656 639.34375 1180.136719 639.34375 C 1178.796875 639.34375 1177.664062 639.8125 1176.714844 640.734375 C 1175.765625 641.667969 1175.285156 642.804688 1175.285156 644.140625 L 1175.285156 674.609375 C 1175.285156 675.933594 1175.765625 677.066406 1176.714844 678.003906 C 1177.664062 678.9375 1178.796875 679.40625 1180.136719 679.40625 C 1181.472656 679.40625 1182.59375 678.9375 1183.53125 678.003906 C 1184.464844 677.066406 1184.933594 675.933594 1184.933594 674.609375 Z M 1180.347656 630.996094 C 1184.0625 630.996094 1187.203125 632.289062 1189.796875 634.894531 C 1192.390625 637.511719 1193.6875 640.652344 1193.6875 644.3125 L 1193.6875 674.691406 C 1193.6875 678.402344 1192.378906 681.542969 1189.769531 684.132812 C 1187.164062 686.726562 1184.023438 688.019531 1180.347656 688.019531 C 1176.648438 688.019531 1173.503906 686.710938 1170.941406 684.105469 C 1168.359375 681.503906 1167.0625 678.363281 1167.0625 674.691406 L 1167.0625 644.3125 C 1167.0625 640.625 1168.375 637.472656 1170.980469 634.882812 C 1173.585938 632.289062 1176.714844 630.996094 1180.347656 630.996094 " fill-opacity="1" fill-rule="nonzero"/><path fill="#697c92" d="M 1214.308594 687.980469 C 1210.605469 687.980469 1207.464844 686.683594 1204.886719 684.105469 C 1202.308594 681.542969 1201.023438 678.417969 1201.023438 674.742188 L 1201.023438 631.703125 L 1209.242188 631.703125 L 1209.242188 674.648438 C 1209.242188 675.984375 1209.710938 677.121094 1210.660156 678.042969 C 1211.609375 678.976562 1212.746094 679.445312 1214.082031 679.445312 C 1215.417969 679.445312 1216.554688 678.976562 1217.476562 678.042969 C 1218.414062 677.121094 1218.878906 675.984375 1218.878906 674.648438 L 1218.878906 631.703125 L 1227.632812 631.703125 L 1227.632812 674.742188 C 1227.632812 678.46875 1226.324219 681.609375 1223.71875 684.148438 C 1221.113281 686.699219 1217.984375 687.980469 1214.308594 687.980469 " fill-opacity="1" fill-rule="nonzero"/><path fill="#697c92" d="M 1262.34375 673.5 C 1262.398438 677.375 1261.394531 680.699219 1259.324219 683.4375 C 1257.945312 685.308594 1256.035156 686.632812 1253.535156 687.40625 C 1252.210938 687.820312 1250.648438 688.019531 1248.871094 688.019531 C 1245.582031 688.019531 1242.855469 687.207031 1240.691406 685.578125 C 1238.886719 684.242188 1237.457031 682.425781 1236.414062 680.140625 C 1235.359375 677.84375 1234.746094 675.210938 1234.570312 672.257812 L 1242.5625 671.683594 C 1242.925781 674.917969 1243.78125 677.269531 1245.144531 678.722656 C 1246.144531 679.832031 1247.308594 680.351562 1248.605469 680.285156 C 1250.449219 680.234375 1251.917969 679.324219 1253 677.574219 C 1253.5625 676.71875 1253.855469 675.492188 1253.855469 673.886719 C 1253.855469 671.578125 1252.800781 669.28125 1250.6875 666.996094 C 1249.03125 665.433594 1246.546875 663.066406 1243.230469 659.929688 C 1240.453125 657.230469 1238.472656 654.8125 1237.324219 652.6875 C 1236.082031 650.285156 1235.453125 647.679688 1235.453125 644.859375 C 1235.453125 639.796875 1237.148438 635.964844 1240.558594 633.34375 C 1242.671875 631.78125 1245.277344 630.996094 1248.390625 630.996094 C 1251.382812 630.996094 1253.9375 631.664062 1256.074219 632.984375 C 1257.734375 634.027344 1259.070312 635.484375 1260.097656 637.339844 C 1261.113281 639.210938 1261.730469 641.359375 1261.941406 643.792969 L 1253.898438 645.246094 C 1253.65625 642.964844 1253 641.199219 1251.945312 639.917969 C 1251.171875 638.996094 1250.0625 638.542969 1248.605469 638.542969 C 1247.066406 638.542969 1245.890625 639.222656 1245.101562 640.585938 C 1244.449219 641.679688 1244.113281 643.042969 1244.113281 644.671875 C 1244.113281 647.226562 1245.210938 649.804688 1247.402344 652.449219 C 1248.242188 653.449219 1249.484375 654.640625 1251.144531 656 C 1253.09375 657.632812 1254.378906 658.765625 1255.007812 659.421875 C 1257.078125 661.492188 1258.679688 663.535156 1259.804688 665.550781 C 1260.339844 666.488281 1260.765625 667.371094 1261.085938 668.171875 C 1261.902344 670.148438 1262.304688 671.925781 1262.34375 673.5 " fill-opacity="1" fill-rule="nonzero"/><path fill="#697c92" d="M 1269.320312 687.351562 L 1269.320312 631.664062 L 1293.21875 631.664062 L 1293.21875 640.105469 L 1277.714844 640.105469 L 1277.714844 655.292969 L 1289.046875 655.292969 L 1289.046875 663.722656 L 1277.714844 663.722656 L 1277.714844 678.910156 L 1293.21875 678.910156 L 1293.21875 687.351562 L 1269.320312 687.351562 " fill-opacity="1" fill-rule="nonzero"/><path fill="#ffffff" d="M 1027.226562 631.703125 L 1036.046875 631.703125 L 1027.332031 687.351562 L 1019.324219 687.351562 L 1014.542969 656.734375 L 1010.078125 687.351562 L 1002.042969 687.351562 L 992.714844 631.703125 L 1001.511719 631.703125 L 1005.90625 661.503906 L 1009.957031 631.703125 L 1018.75 631.703125 L 1023.148438 661.476562 L 1027.226562 631.703125 " fill-opacity="1" fill-rule="nonzero"/><path fill="#ffffff" d="M 1050.171875 644.445312 L 1047.058594 666.394531 L 1053.285156 666.394531 Z M 1045.761719 674.570312 L 1043.71875 687.351562 L 1034.976562 687.351562 L 1044.4375 631.703125 L 1055.988281 631.703125 L 1065.328125 687.351562 L 1056.496094 687.351562 L 1054.53125 674.570312 L 1045.761719 674.570312 " fill-opacity="1" fill-rule="nonzero"/><path fill="#ffffff" d="M 1090.65625 645.113281 C 1090.65625 641.894531 1089.050781 640.277344 1085.855469 640.277344 L 1080.792969 640.277344 L 1080.792969 658.085938 L 1085.855469 658.085938 C 1087.179688 658.085938 1088.316406 657.617188 1089.253906 656.65625 C 1090.1875 655.722656 1090.65625 654.570312 1090.65625 653.234375 Z M 1085.628906 631.703125 C 1090.308594 631.703125 1093.742188 632.984375 1095.933594 635.5625 C 1097.859375 637.820312 1098.835938 640.960938 1098.835938 644.980469 L 1098.835938 653.0625 C 1098.835938 657.003906 1097.324219 660.34375 1094.34375 663.054688 L 1100.558594 687.351562 L 1091.472656 687.351562 L 1086.390625 666.394531 L 1080.792969 666.394531 L 1080.792969 687.351562 L 1072.386719 687.351562 L 1072.386719 631.703125 L 1085.628906 631.703125 " fill-opacity="1" fill-rule="nonzero"/><path fill="#ffffff" d="M 1107.761719 687.351562 L 1107.761719 631.664062 L 1131.660156 631.664062 L 1131.660156 640.105469 L 1116.15625 640.105469 L 1116.15625 655.292969 L 1127.488281 655.292969 L 1127.488281 663.722656 L 1116.15625 663.722656 L 1116.15625 678.910156 L 1131.660156 678.910156 L 1131.660156 687.351562 L 1107.761719 687.351562 " fill-opacity="1" fill-rule="nonzero"/><path fill="#ffffff" d="M 1145.839844 663.761719 L 1145.839844 687.351562 L 1137.445312 687.351562 L 1137.445312 631.703125 L 1145.839844 631.703125 L 1145.839844 655.332031 L 1155.972656 655.332031 L 1155.972656 631.703125 L 1164.378906 631.703125 L 1164.378906 687.351562 L 1155.972656 687.351562 L 1155.972656 663.761719 L 1145.839844 663.761719 " fill-opacity="1" fill-rule="nonzero"/><path fill="#ffffff" d="M 1189.652344 644.140625 C 1189.652344 642.804688 1189.183594 641.667969 1188.246094 640.734375 C 1187.324219 639.8125 1186.1875 639.34375 1184.851562 639.34375 C 1183.515625 639.34375 1182.378906 639.8125 1181.429688 640.734375 C 1180.480469 641.667969 1180.015625 642.804688 1180.015625 644.140625 L 1180.015625 674.609375 C 1180.015625 675.933594 1180.480469 677.066406 1181.429688 678.003906 C 1182.378906 678.9375 1183.515625 679.40625 1184.851562 679.40625 C 1186.1875 679.40625 1187.324219 678.9375 1188.246094 678.003906 C 1189.183594 677.066406 1189.652344 675.933594 1189.652344 674.609375 Z M 1185.078125 630.996094 C 1188.78125 630.996094 1191.921875 632.289062 1194.515625 634.894531 C 1197.109375 637.511719 1198.40625 640.652344 1198.40625 644.3125 L 1198.40625 674.691406 C 1198.40625 678.402344 1197.09375 681.542969 1194.503906 684.132812 C 1191.894531 686.726562 1188.753906 688.019531 1185.078125 688.019531 C 1181.378906 688.019531 1178.238281 686.710938 1175.65625 684.105469 C 1173.078125 681.503906 1171.796875 678.363281 1171.796875 674.691406 L 1171.796875 644.3125 C 1171.796875 640.625 1173.089844 637.472656 1175.699219 634.882812 C 1178.304688 632.289062 1181.429688 630.996094 1185.078125 630.996094 " fill-opacity="1" fill-rule="nonzero"/><path fill="#ffffff" d="M 1219.027344 687.980469 C 1215.324219 687.980469 1212.183594 686.683594 1209.605469 684.105469 C 1207.027344 681.542969 1205.742188 678.417969 1205.742188 674.742188 L 1205.742188 631.703125 L 1213.960938 631.703125 L 1213.960938 674.648438 C 1213.960938 675.984375 1214.429688 677.121094 1215.378906 678.042969 C 1216.328125 678.976562 1217.464844 679.445312 1218.800781 679.445312 C 1220.136719 679.445312 1221.273438 678.976562 1222.207031 678.042969 C 1223.128906 677.121094 1223.597656 675.984375 1223.597656 674.648438 L 1223.597656 631.703125 L 1232.351562 631.703125 L 1232.351562 674.742188 C 1232.351562 678.46875 1231.054688 681.609375 1228.449219 684.148438 C 1225.84375 686.699219 1222.703125 687.980469 1219.027344 687.980469 " fill-opacity="1" fill-rule="nonzero"/><path fill="#ffffff" d="M 1267.0625 673.5 C 1267.113281 677.375 1266.113281 680.699219 1264.039062 683.4375 C 1262.675781 685.308594 1260.753906 686.632812 1258.253906 687.40625 C 1256.929688 687.820312 1255.367188 688.019531 1253.601562 688.019531 C 1250.300781 688.019531 1247.574219 687.207031 1245.421875 685.578125 C 1243.617188 684.242188 1242.175781 682.425781 1241.132812 680.140625 C 1240.078125 677.84375 1239.460938 675.210938 1239.289062 672.257812 L 1247.28125 671.683594 C 1247.640625 674.917969 1248.496094 677.269531 1249.859375 678.722656 C 1250.863281 679.832031 1252.027344 680.351562 1253.335938 680.285156 C 1255.167969 680.234375 1256.636719 679.324219 1257.734375 677.574219 C 1258.292969 676.71875 1258.574219 675.492188 1258.574219 673.886719 C 1258.574219 671.578125 1257.519531 669.28125 1255.421875 666.996094 C 1253.761719 665.433594 1251.265625 663.066406 1247.949219 659.929688 C 1245.167969 657.230469 1243.191406 654.8125 1242.042969 652.6875 C 1240.800781 650.285156 1240.171875 647.679688 1240.171875 644.859375 C 1240.171875 639.796875 1241.882812 635.964844 1245.289062 633.34375 C 1247.386719 631.78125 1249.996094 630.996094 1253.109375 630.996094 C 1256.101562 630.996094 1258.65625 631.664062 1260.792969 632.984375 C 1262.449219 634.027344 1263.785156 635.484375 1264.816406 637.339844 C 1265.832031 639.210938 1266.460938 641.359375 1266.660156 643.792969 L 1258.613281 645.246094 C 1258.375 642.964844 1257.734375 641.199219 1256.664062 639.917969 C 1255.886719 638.996094 1254.777344 638.542969 1253.335938 638.542969 C 1251.785156 638.542969 1250.621094 639.222656 1249.820312 640.585938 C 1249.164062 641.679688 1248.84375 643.042969 1248.84375 644.671875 C 1248.84375 647.226562 1249.941406 649.804688 1252.132812 652.449219 C 1252.960938 653.449219 1254.203125 654.640625 1255.863281 656 C 1257.8125 657.632812 1259.109375 658.765625 1259.722656 659.421875 C 1261.796875 661.492188 1263.398438 663.535156 1264.523438 665.550781 C 1265.054688 666.488281 1265.484375 667.371094 1265.820312 668.171875 C 1266.621094 670.148438 1267.035156 671.925781 1267.0625 673.5 " fill-opacity="1" fill-rule="nonzero"/><path fill="#ffffff" d="M 1274.039062 687.351562 L 1274.039062 631.664062 L 1297.949219 631.664062 L 1297.949219 640.105469 L 1282.429688 640.105469 L 1282.429688 655.292969 L 1293.765625 655.292969 L 1293.765625 663.722656 L 1282.429688 663.722656 L 1282.429688 678.910156 L 1297.949219 678.910156 L 1297.949219 687.351562 L 1274.039062 687.351562 " fill-opacity="1" fill-rule="nonzero"/><path fill="#d67343" d="M 834.527344 869.535156 L 783.980469 869.535156 L 783.980469 831.972656 L 834.527344 831.972656 L 834.527344 869.535156 " fill-opacity="1" fill-rule="nonzero"/><path fill="#e29b4c" d="M 819.25 869.535156 L 783.980469 869.535156 L 783.980469 831.972656 L 819.25 831.972656 L 819.25 869.535156 " fill-opacity="1" fill-rule="nonzero"/><path fill="#ffffff" d="M 812.140625 844.792969 L 802.945312 844.792969 L 802.945312 836.566406 L 812.140625 836.566406 L 812.140625 844.792969 " fill-opacity="1" fill-rule="nonzero"/><path fill="#d67343" d="M 801.289062 869.535156 L 750.726562 869.535156 L 750.726562 831.972656 L 801.289062 831.972656 L 801.289062 869.535156 " fill-opacity="1" fill-rule="nonzero"/><path fill="#e29b4c" d="M 786 869.535156 L 750.726562 869.535156 L 750.726562 831.972656 L 786 831.972656 L 786 869.535156 " fill-opacity="1" fill-rule="nonzero"/><path fill="#ffffff" d="M 762.433594 864.632812 L 753.238281 864.632812 L 753.238281 856.402344 L 762.433594 856.402344 L 762.433594 864.632812 " fill-opacity="1" fill-rule="nonzero"/><path fill="#ffffff" d="M 782.617188 862.949219 L 773.421875 862.949219 L 773.421875 864.632812 L 782.617188 864.632812 L 782.617188 862.949219 " fill-opacity="1" fill-rule="nonzero"/><path fill="#d67343" d="M 750.914062 869.535156 L 700.367188 869.535156 L 700.367188 831.972656 L 750.914062 831.972656 L 750.914062 869.535156 " fill-opacity="1" fill-rule="nonzero"/><path fill="#e29b4c" d="M 735.625 869.535156 L 700.367188 869.535156 L 700.367188 831.972656 L 735.625 831.972656 L 735.625 869.535156 " fill-opacity="1" fill-rule="nonzero"/><path fill="#d67343" d="M 722.488281 841.535156 L 713.503906 841.535156 L 713.503906 831.972656 L 722.488281 831.972656 L 722.488281 841.535156 " fill-opacity="1" fill-rule="nonzero"/><path fill="#ffffff" d="M 732.242188 864.632812 L 723.046875 864.632812 L 723.046875 856.402344 L 732.242188 856.402344 L 732.242188 864.632812 " fill-opacity="1" fill-rule="nonzero"/><path fill="#ffffff" d="M 732.242188 853.863281 L 723.046875 853.863281 L 723.046875 855.5625 L 732.242188 855.5625 L 732.242188 853.863281 " fill-opacity="1" fill-rule="nonzero"/><path fill="#d67343" d="M 761.886719 869.535156 L 711.328125 869.535156 L 711.328125 831.972656 L 761.886719 831.972656 L 761.886719 869.535156 " fill-opacity="1" fill-rule="nonzero"/><path fill="#e29b4c" d="M 746.597656 869.535156 L 711.328125 869.535156 L 711.328125 831.972656 L 746.597656 831.972656 L 746.597656 869.535156 " fill-opacity="1" fill-rule="nonzero"/><path fill="#ffffff" d="M 739.5 844.792969 L 730.304688 844.792969 L 730.304688 836.566406 L 739.5 836.566406 L 739.5 844.792969 " fill-opacity="1" fill-rule="nonzero"/><path fill="#d67343" d="M 728.648438 869.535156 L 678.089844 869.535156 L 678.089844 831.972656 L 728.648438 831.972656 L 728.648438 869.535156 " fill-opacity="1" fill-rule="nonzero"/><path fill="#e29b4c" d="M 713.359375 869.535156 L 678.089844 869.535156 L 678.089844 831.972656 L 713.359375 831.972656 L 713.359375 869.535156 " fill-opacity="1" fill-rule="nonzero"/><path fill="#ffffff" d="M 689.796875 864.632812 L 680.601562 864.632812 L 680.601562 856.402344 L 689.796875 856.402344 L 689.796875 864.632812 " fill-opacity="1" fill-rule="nonzero"/><path fill="#ffffff" d="M 709.964844 862.949219 L 700.769531 862.949219 L 700.769531 864.632812 L 709.964844 864.632812 L 709.964844 862.949219 " fill-opacity="1" fill-rule="nonzero"/><path fill="#d67343" d="M 678.273438 869.535156 L 627.714844 869.535156 L 627.714844 831.972656 L 678.273438 831.972656 L 678.273438 869.535156 " fill-opacity="1" fill-rule="nonzero"/><path fill="#e29b4c" d="M 662.984375 869.535156 L 627.714844 869.535156 L 627.714844 831.972656 L 662.984375 831.972656 L 662.984375 869.535156 " fill-opacity="1" fill-rule="nonzero"/><path fill="#d67343" d="M 649.835938 841.535156 L 640.867188 841.535156 L 640.867188 831.972656 L 649.835938 831.972656 L 649.835938 841.535156 " fill-opacity="1" fill-rule="nonzero"/><path fill="#ffffff" d="M 659.605469 864.632812 L 650.394531 864.632812 L 650.394531 856.402344 L 659.605469 856.402344 L 659.605469 864.632812 " fill-opacity="1" fill-rule="nonzero"/><path fill="#ffffff" d="M 659.605469 853.863281 L 650.394531 853.863281 L 650.394531 855.5625 L 659.605469 855.5625 L 659.605469 853.863281 " fill-opacity="1" fill-rule="nonzero"/><path fill="#d67343" d="M 764.144531 795.664062 L 713.585938 795.664062 L 713.585938 758.097656 L 764.144531 758.097656 L 764.144531 795.664062 " fill-opacity="1" fill-rule="nonzero"/><path fill="#e29b4c" d="M 748.855469 795.664062 L 713.585938 795.664062 L 713.585938 758.097656 L 748.855469 758.097656 L 748.855469 795.664062 " fill-opacity="1" fill-rule="nonzero"/><path fill="#ffffff" d="M 725.292969 790.761719 L 716.097656 790.761719 L 716.097656 782.53125 L 725.292969 782.53125 L 725.292969 790.761719 " fill-opacity="1" fill-rule="nonzero"/><path fill="#ffffff" d="M 745.460938 789.0625 L 736.265625 789.0625 L 736.265625 790.761719 L 745.460938 790.761719 L 745.460938 789.0625 " fill-opacity="1" fill-rule="nonzero"/><path fill="#d67343" d="M 713.773438 795.664062 L 663.214844 795.664062 L 663.214844 758.097656 L 713.773438 758.097656 L 713.773438 795.664062 " fill-opacity="1" fill-rule="nonzero"/><path fill="#e29b4c" d="M 698.484375 795.664062 L 663.214844 795.664062 L 663.214844 758.097656 L 698.484375 758.097656 L 698.484375 795.664062 " fill-opacity="1" fill-rule="nonzero"/><path fill="#d67343" d="M 685.34375 767.648438 L 676.363281 767.648438 L 676.363281 758.097656 L 685.34375 758.097656 L 685.34375 767.648438 " fill-opacity="1" fill-rule="nonzero"/><path fill="#ffffff" d="M 695.101562 790.761719 L 685.90625 790.761719 L 685.90625 782.53125 L 695.101562 782.53125 L 695.101562 790.761719 " fill-opacity="1" fill-rule="nonzero"/><path fill="#ffffff" d="M 695.101562 779.992188 L 685.90625 779.992188 L 685.90625 781.691406 L 695.101562 781.691406 L 695.101562 779.992188 " fill-opacity="1" fill-rule="nonzero"/><path fill="#d67343" d="M 779.984375 833.214844 L 729.4375 833.214844 L 729.4375 795.648438 L 779.984375 795.648438 L 779.984375 833.214844 " fill-opacity="1" fill-rule="nonzero"/><path fill="#e29b4c" d="M 764.707031 833.214844 L 729.4375 833.214844 L 729.4375 795.648438 L 764.707031 795.648438 L 764.707031 833.214844 " fill-opacity="1" fill-rule="nonzero"/><path fill="#ffffff" d="M 757.597656 808.472656 L 748.402344 808.472656 L 748.402344 800.257812 L 757.597656 800.257812 L 757.597656 808.472656 " fill-opacity="1" fill-rule="nonzero"/><path fill="#d67343" d="M 746.746094 833.214844 L 696.199219 833.214844 L 696.199219 795.648438 L 746.746094 795.648438 L 746.746094 833.214844 " fill-opacity="1" fill-rule="nonzero"/><path fill="#e29b4c" d="M 731.457031 833.214844 L 696.199219 833.214844 L 696.199219 795.648438 L 731.457031 795.648438 L 731.457031 833.214844 " fill-opacity="1" fill-rule="nonzero"/><path fill="#ffffff" d="M 707.90625 828.324219 L 698.695312 828.324219 L 698.695312 820.082031 L 707.90625 820.082031 L 707.90625 828.324219 " fill-opacity="1" fill-rule="nonzero"/><path fill="#ffffff" d="M 728.074219 826.628906 L 718.878906 826.628906 L 718.878906 828.324219 L 728.074219 828.324219 L 728.074219 826.628906 " fill-opacity="1" fill-rule="nonzero"/><path fill="#d67343" d="M 696.371094 833.214844 L 645.824219 833.214844 L 645.824219 795.648438 L 696.371094 795.648438 L 696.371094 833.214844 " fill-opacity="1" fill-rule="nonzero"/><path fill="#e29b4c" d="M 681.09375 833.214844 L 645.824219 833.214844 L 645.824219 795.648438 L 681.09375 795.648438 L 681.09375 833.214844 " fill-opacity="1" fill-rule="nonzero"/><path fill="#d67343" d="M 667.945312 805.214844 L 658.976562 805.214844 L 658.976562 795.648438 L 667.945312 795.648438 L 667.945312 805.214844 " fill-opacity="1" fill-rule="nonzero"/><path fill="#ffffff" d="M 677.699219 828.324219 L 668.503906 828.324219 L 668.503906 820.082031 L 677.699219 820.082031 L 677.699219 828.324219 " fill-opacity="1" fill-rule="nonzero"/><path fill="#ffffff" d="M 677.699219 817.542969 L 668.503906 817.542969 L 668.503906 819.242188 L 677.699219 819.242188 L 677.699219 817.542969 " fill-opacity="1" fill-rule="nonzero"/><path fill="#d67343" d="M 1264.667969 944.433594 L 1196.707031 944.433594 L 1196.707031 893.941406 L 1264.667969 893.941406 L 1264.667969 944.433594 " fill-opacity="1" fill-rule="nonzero"/><path fill="#e29b4c" d="M 1244.125 944.433594 L 1196.707031 944.433594 L 1196.707031 893.941406 L 1244.125 893.941406 L 1244.125 944.433594 " fill-opacity="1" fill-rule="nonzero"/><path fill="#ffffff" d="M 1234.570312 911.1875 L 1222.207031 911.1875 L 1222.207031 900.125 L 1234.570312 900.125 L 1234.570312 911.1875 " fill-opacity="1" fill-rule="nonzero"/><path fill="#d67343" d="M 1219.976562 944.433594 L 1152.015625 944.433594 L 1152.015625 893.941406 L 1219.976562 893.941406 L 1219.976562 944.433594 " fill-opacity="1" fill-rule="nonzero"/><path fill="#e29b4c" d="M 1199.433594 944.433594 L 1152.015625 944.433594 L 1152.015625 893.941406 L 1199.433594 893.941406 L 1199.433594 944.433594 " fill-opacity="1" fill-rule="nonzero"/><path fill="#ffffff" d="M 1167.757812 937.863281 L 1155.394531 937.863281 L 1155.394531 926.789062 L 1167.757812 926.789062 L 1167.757812 937.863281 " fill-opacity="1" fill-rule="nonzero"/><path fill="#ffffff" d="M 1194.875 935.578125 L 1182.515625 935.578125 L 1182.515625 937.863281 L 1194.875 937.863281 L 1194.875 935.578125 " fill-opacity="1" fill-rule="nonzero"/><path fill="#d67343" d="M 1152.269531 944.433594 L 1084.292969 944.433594 L 1084.292969 893.941406 L 1152.269531 893.941406 L 1152.269531 944.433594 " fill-opacity="1" fill-rule="nonzero"/><path fill="#e29b4c" d="M 1131.714844 944.433594 L 1084.292969 944.433594 L 1084.292969 893.941406 L 1131.714844 893.941406 L 1131.714844 944.433594 " fill-opacity="1" fill-rule="nonzero"/><path fill="#d67343" d="M 1114.042969 906.789062 L 1101.976562 906.789062 L 1101.976562 893.941406 L 1114.042969 893.941406 L 1114.042969 906.789062 " fill-opacity="1" fill-rule="nonzero"/><path fill="#ffffff" d="M 1127.15625 937.863281 L 1114.792969 937.863281 L 1114.792969 926.789062 L 1127.15625 926.789062 L 1127.15625 937.863281 " fill-opacity="1" fill-rule="nonzero"/><path fill="#ffffff" d="M 1127.15625 923.382812 L 1114.792969 923.382812 L 1114.792969 925.652344 L 1127.15625 925.652344 L 1127.15625 923.382812 " fill-opacity="1" fill-rule="nonzero"/><path fill="#d67343" d="M 1167.011719 944.433594 L 1099.035156 944.433594 L 1099.035156 893.941406 L 1167.011719 893.941406 L 1167.011719 944.433594 " fill-opacity="1" fill-rule="nonzero"/><path fill="#e29b4c" d="M 1146.453125 944.433594 L 1099.035156 944.433594 L 1099.035156 893.941406 L 1146.453125 893.941406 L 1146.453125 944.433594 " fill-opacity="1" fill-rule="nonzero"/><path fill="#ffffff" d="M 1136.910156 911.1875 L 1124.550781 911.1875 L 1124.550781 900.125 L 1136.910156 900.125 L 1136.910156 911.1875 " fill-opacity="1" fill-rule="nonzero"/><path fill="#d67343" d="M 1122.316406 944.433594 L 1054.355469 944.433594 L 1054.355469 893.941406 L 1122.316406 893.941406 L 1122.316406 944.433594 " fill-opacity="1" fill-rule="nonzero"/><path fill="#e29b4c" d="M 1101.761719 944.433594 L 1054.355469 944.433594 L 1054.355469 893.941406 L 1101.761719 893.941406 L 1101.761719 944.433594 " fill-opacity="1" fill-rule="nonzero"/><path fill="#ffffff" d="M 1070.085938 937.863281 L 1057.722656 937.863281 L 1057.722656 926.789062 L 1070.085938 926.789062 L 1070.085938 937.863281 " fill-opacity="1" fill-rule="nonzero"/><path fill="#ffffff" d="M 1097.203125 935.578125 L 1084.839844 935.578125 L 1084.839844 937.863281 L 1097.203125 937.863281 L 1097.203125 935.578125 " fill-opacity="1" fill-rule="nonzero"/><path fill="#d67343" d="M 1054.597656 944.433594 L 986.636719 944.433594 L 986.636719 893.941406 L 1054.597656 893.941406 L 1054.597656 944.433594 " fill-opacity="1" fill-rule="nonzero"/><path fill="#e29b4c" d="M 1034.054688 944.433594 L 986.636719 944.433594 L 986.636719 893.941406 L 1034.054688 893.941406 L 1034.054688 944.433594 " fill-opacity="1" fill-rule="nonzero"/><path fill="#d67343" d="M 1016.371094 906.789062 L 1004.304688 906.789062 L 1004.304688 893.941406 L 1016.371094 893.941406 L 1016.371094 906.789062 " fill-opacity="1" fill-rule="nonzero"/><path fill="#ffffff" d="M 1029.496094 937.863281 L 1017.121094 937.863281 L 1017.121094 926.789062 L 1029.496094 926.789062 L 1029.496094 937.863281 " fill-opacity="1" fill-rule="nonzero"/><path fill="#ffffff" d="M 1029.496094 923.382812 L 1017.121094 923.382812 L 1017.121094 925.652344 L 1029.496094 925.652344 L 1029.496094 923.382812 " fill-opacity="1" fill-rule="nonzero"/><path fill="#d67343" d="M 1170.042969 845.117188 L 1102.082031 845.117188 L 1102.082031 794.621094 L 1170.042969 794.621094 L 1170.042969 845.117188 " fill-opacity="1" fill-rule="nonzero"/><path fill="#e29b4c" d="M 1149.488281 845.117188 L 1102.082031 845.117188 L 1102.082031 794.621094 L 1149.488281 794.621094 L 1149.488281 845.117188 " fill-opacity="1" fill-rule="nonzero"/><path fill="#ffffff" d="M 1117.8125 838.53125 L 1105.449219 838.53125 L 1105.449219 827.480469 L 1117.8125 827.480469 L 1117.8125 838.53125 " fill-opacity="1" fill-rule="nonzero"/><path fill="#ffffff" d="M 1144.929688 836.257812 L 1132.570312 836.257812 L 1132.570312 838.53125 L 1144.929688 838.53125 L 1144.929688 836.257812 " fill-opacity="1" fill-rule="nonzero"/><path fill="#d67343" d="M 1102.324219 845.117188 L 1034.363281 845.117188 L 1034.363281 794.621094 L 1102.324219 794.621094 L 1102.324219 845.117188 " fill-opacity="1" fill-rule="nonzero"/><path fill="#e29b4c" d="M 1081.769531 845.117188 L 1034.363281 845.117188 L 1034.363281 794.621094 L 1081.769531 794.621094 L 1081.769531 845.117188 " fill-opacity="1" fill-rule="nonzero"/><path fill="#d67343" d="M 1064.097656 807.472656 L 1052.03125 807.472656 L 1052.03125 794.621094 L 1064.097656 794.621094 L 1064.097656 807.472656 " fill-opacity="1" fill-rule="nonzero"/><path fill="#ffffff" d="M 1077.222656 838.53125 L 1064.847656 838.53125 L 1064.847656 827.480469 L 1077.222656 827.480469 L 1077.222656 838.53125 " fill-opacity="1" fill-rule="nonzero"/><path fill="#ffffff" d="M 1077.222656 824.0625 L 1064.847656 824.0625 L 1064.847656 826.332031 L 1077.222656 826.332031 L 1077.222656 824.0625 " fill-opacity="1" fill-rule="nonzero"/><path fill="#d67343" d="M 1191.347656 895.609375 L 1123.375 895.609375 L 1123.375 845.117188 L 1191.347656 845.117188 L 1191.347656 895.609375 " fill-opacity="1" fill-rule="nonzero"/><path fill="#e29b4c" d="M 1170.792969 895.609375 L 1123.375 895.609375 L 1123.375 845.117188 L 1170.792969 845.117188 L 1170.792969 895.609375 " fill-opacity="1" fill-rule="nonzero"/><path fill="#ffffff" d="M 1161.25 862.359375 L 1148.886719 862.359375 L 1148.886719 851.300781 L 1161.25 851.300781 L 1161.25 862.359375 " fill-opacity="1" fill-rule="nonzero"/><path fill="#d67343" d="M 1146.65625 895.609375 L 1078.695312 895.609375 L 1078.695312 845.117188 L 1146.65625 845.117188 L 1146.65625 895.609375 " fill-opacity="1" fill-rule="nonzero"/><path fill="#e29b4c" d="M 1126.101562 895.609375 L 1078.695312 895.609375 L 1078.695312 845.117188 L 1126.101562 845.117188 L 1126.101562 895.609375 " fill-opacity="1" fill-rule="nonzero"/><path fill="#ffffff" d="M 1094.425781 889.023438 L 1082.0625 889.023438 L 1082.0625 877.964844 L 1094.425781 877.964844 L 1094.425781 889.023438 " fill-opacity="1" fill-rule="nonzero"/><path fill="#ffffff" d="M 1121.542969 886.753906 L 1109.179688 886.753906 L 1109.179688 889.023438 L 1121.542969 889.023438 L 1121.542969 886.753906 " fill-opacity="1" fill-rule="nonzero"/><path fill="#d67343" d="M 1078.933594 895.609375 L 1010.972656 895.609375 L 1010.972656 845.117188 L 1078.933594 845.117188 L 1078.933594 895.609375 " fill-opacity="1" fill-rule="nonzero"/><path fill="#e29b4c" d="M 1058.378906 895.609375 L 1010.972656 895.609375 L 1010.972656 845.117188 L 1058.378906 845.117188 L 1058.378906 895.609375 " fill-opacity="1" fill-rule="nonzero"/><path fill="#d67343" d="M 1040.710938 857.964844 L 1028.640625 857.964844 L 1028.640625 845.117188 L 1040.710938 845.117188 L 1040.710938 857.964844 " fill-opacity="1" fill-rule="nonzero"/><path fill="#ffffff" d="M 1053.820312 889.023438 L 1041.457031 889.023438 L 1041.457031 877.964844 L 1053.820312 877.964844 L 1053.820312 889.023438 " fill-opacity="1" fill-rule="nonzero"/><path fill="#ffffff" d="M 1053.820312 874.542969 L 1041.457031 874.542969 L 1041.457031 876.828125 L 1053.820312 876.828125 L 1053.820312 874.542969 " fill-opacity="1" fill-rule="nonzero"/><path fill="#d67343" d="M 703.617188 869.535156 L 653.070312 869.535156 L 653.070312 831.972656 L 703.617188 831.972656 L 703.617188 869.535156 " fill-opacity="1" fill-rule="nonzero"/><path fill="#e29b4c" d="M 688.339844 869.535156 L 653.070312 869.535156 L 653.070312 831.972656 L 688.339844 831.972656 L 688.339844 869.535156 " fill-opacity="1" fill-rule="nonzero"/><path fill="#ffffff" d="M 681.230469 844.792969 L 672.035156 844.792969 L 672.035156 836.566406 L 681.230469 836.566406 L 681.230469 844.792969 " fill-opacity="1" fill-rule="nonzero"/><path fill="#d67343" d="M 670.375 869.535156 L 619.828125 869.535156 L 619.828125 831.972656 L 670.375 831.972656 L 670.375 869.535156 " fill-opacity="1" fill-rule="nonzero"/><path fill="#e29b4c" d="M 655.085938 869.535156 L 619.828125 869.535156 L 619.828125 831.972656 L 655.085938 831.972656 L 655.085938 869.535156 " fill-opacity="1" fill-rule="nonzero"/><path fill="#ffffff" d="M 631.523438 864.632812 L 622.328125 864.632812 L 622.328125 856.402344 L 631.523438 856.402344 L 631.523438 864.632812 " fill-opacity="1" fill-rule="nonzero"/><path fill="#ffffff" d="M 651.707031 862.949219 L 642.496094 862.949219 L 642.496094 864.632812 L 651.707031 864.632812 L 651.707031 862.949219 " fill-opacity="1" fill-rule="nonzero"/><path fill="#d67343" d="M 620.003906 869.535156 L 569.457031 869.535156 L 569.457031 831.972656 L 620.003906 831.972656 L 620.003906 869.535156 " fill-opacity="1" fill-rule="nonzero"/><path fill="#e29b4c" d="M 604.726562 869.535156 L 569.457031 869.535156 L 569.457031 831.972656 L 604.726562 831.972656 L 604.726562 869.535156 " fill-opacity="1" fill-rule="nonzero"/><path fill="#d67343" d="M 591.574219 841.535156 L 582.609375 841.535156 L 582.609375 831.972656 L 591.574219 831.972656 L 591.574219 841.535156 " fill-opacity="1" fill-rule="nonzero"/><path fill="#ffffff" d="M 601.332031 864.632812 L 592.136719 864.632812 L 592.136719 856.402344 L 601.332031 856.402344 L 601.332031 864.632812 " fill-opacity="1" fill-rule="nonzero"/><path fill="#ffffff" d="M 601.332031 853.863281 L 592.136719 853.863281 L 592.136719 855.5625 L 601.332031 855.5625 L 601.332031 853.863281 " fill-opacity="1" fill-rule="nonzero"/><path fill="#d67343" d="M 630.976562 869.535156 L 580.429688 869.535156 L 580.429688 831.972656 L 630.976562 831.972656 L 630.976562 869.535156 " fill-opacity="1" fill-rule="nonzero"/><path fill="#e29b4c" d="M 615.6875 869.535156 L 580.429688 869.535156 L 580.429688 831.972656 L 615.6875 831.972656 L 615.6875 869.535156 " fill-opacity="1" fill-rule="nonzero"/><path fill="#ffffff" d="M 608.589844 844.792969 L 599.394531 844.792969 L 599.394531 836.566406 L 608.589844 836.566406 L 608.589844 844.792969 " fill-opacity="1" fill-rule="nonzero"/><path fill="#d67343" d="M 597.738281 869.535156 L 547.175781 869.535156 L 547.175781 831.972656 L 597.738281 831.972656 L 597.738281 869.535156 " fill-opacity="1" fill-rule="nonzero"/><path fill="#e29b4c" d="M 582.449219 869.535156 L 547.175781 869.535156 L 547.175781 831.972656 L 582.449219 831.972656 L 582.449219 869.535156 " fill-opacity="1" fill-rule="nonzero"/><path fill="#ffffff" d="M 558.886719 864.632812 L 549.691406 864.632812 L 549.691406 856.402344 L 558.886719 856.402344 L 558.886719 864.632812 " fill-opacity="1" fill-rule="nonzero"/><path fill="#ffffff" d="M 579.054688 862.949219 L 569.859375 862.949219 L 569.859375 864.632812 L 579.054688 864.632812 L 579.054688 862.949219 " fill-opacity="1" fill-rule="nonzero"/><path fill="#d67343" d="M 547.363281 869.535156 L 496.816406 869.535156 L 496.816406 831.972656 L 547.363281 831.972656 L 547.363281 869.535156 " fill-opacity="1" fill-rule="nonzero"/><path fill="#e29b4c" d="M 532.074219 869.535156 L 496.816406 869.535156 L 496.816406 831.972656 L 532.074219 831.972656 L 532.074219 869.535156 " fill-opacity="1" fill-rule="nonzero"/><path fill="#d67343" d="M 518.9375 841.535156 L 509.957031 841.535156 L 509.957031 831.972656 L 518.9375 831.972656 L 518.9375 841.535156 " fill-opacity="1" fill-rule="nonzero"/><path fill="#ffffff" d="M 528.691406 864.632812 L 519.496094 864.632812 L 519.496094 856.402344 L 528.691406 856.402344 L 528.691406 864.632812 " fill-opacity="1" fill-rule="nonzero"/><path fill="#ffffff" d="M 528.691406 853.863281 L 519.496094 853.863281 L 519.496094 855.5625 L 528.691406 855.5625 L 528.691406 853.863281 " fill-opacity="1" fill-rule="nonzero"/><path fill="#d67343" d="M 633.234375 795.664062 L 582.675781 795.664062 L 582.675781 758.097656 L 633.234375 758.097656 L 633.234375 795.664062 " fill-opacity="1" fill-rule="nonzero"/><path fill="#e29b4c" d="M 617.945312 795.664062 L 582.675781 795.664062 L 582.675781 758.097656 L 617.945312 758.097656 L 617.945312 795.664062 " fill-opacity="1" fill-rule="nonzero"/><path fill="#ffffff" d="M 594.382812 790.761719 L 585.1875 790.761719 L 585.1875 782.53125 L 594.382812 782.53125 L 594.382812 790.761719 " fill-opacity="1" fill-rule="nonzero"/><path fill="#ffffff" d="M 614.5625 789.0625 L 605.355469 789.0625 L 605.355469 790.761719 L 614.5625 790.761719 L 614.5625 789.0625 " fill-opacity="1" fill-rule="nonzero"/><path fill="#d67343" d="M 582.863281 795.664062 L 532.316406 795.664062 L 532.316406 758.097656 L 582.863281 758.097656 L 582.863281 795.664062 " fill-opacity="1" fill-rule="nonzero"/><path fill="#e29b4c" d="M 567.570312 795.664062 L 532.316406 795.664062 L 532.316406 758.097656 L 567.570312 758.097656 L 567.570312 795.664062 " fill-opacity="1" fill-rule="nonzero"/><path fill="#d67343" d="M 554.433594 767.648438 L 545.453125 767.648438 L 545.453125 758.097656 L 554.433594 758.097656 L 554.433594 767.648438 " fill-opacity="1" fill-rule="nonzero"/><path fill="#ffffff" d="M 564.191406 790.761719 L 554.996094 790.761719 L 554.996094 782.53125 L 564.191406 782.53125 L 564.191406 790.761719 " fill-opacity="1" fill-rule="nonzero"/><path fill="#ffffff" d="M 564.191406 779.992188 L 554.996094 779.992188 L 554.996094 781.691406 L 564.191406 781.691406 L 564.191406 779.992188 " fill-opacity="1" fill-rule="nonzero"/><path fill="#d67343" d="M 649.074219 833.214844 L 598.527344 833.214844 L 598.527344 795.648438 L 649.074219 795.648438 L 649.074219 833.214844 " fill-opacity="1" fill-rule="nonzero"/><path fill="#e29b4c" d="M 633.796875 833.214844 L 598.527344 833.214844 L 598.527344 795.648438 L 633.796875 795.648438 L 633.796875 833.214844 " fill-opacity="1" fill-rule="nonzero"/><path fill="#ffffff" d="M 626.6875 808.472656 L 617.492188 808.472656 L 617.492188 800.257812 L 626.6875 800.257812 L 626.6875 808.472656 " fill-opacity="1" fill-rule="nonzero"/><path fill="#d67343" d="M 615.832031 833.214844 L 565.285156 833.214844 L 565.285156 795.648438 L 615.832031 795.648438 L 615.832031 833.214844 " fill-opacity="1" fill-rule="nonzero"/><path fill="#e29b4c" d="M 600.558594 833.214844 L 565.285156 833.214844 L 565.285156 795.648438 L 600.558594 795.648438 L 600.558594 833.214844 " fill-opacity="1" fill-rule="nonzero"/><path fill="#ffffff" d="M 576.980469 828.324219 L 567.785156 828.324219 L 567.785156 820.082031 L 576.980469 820.082031 L 576.980469 828.324219 " fill-opacity="1" fill-rule="nonzero"/><path fill="#ffffff" d="M 597.164062 826.628906 L 587.96875 826.628906 L 587.96875 828.324219 L 597.164062 828.324219 L 597.164062 826.628906 " fill-opacity="1" fill-rule="nonzero"/><path fill="#d67343" d="M 565.460938 833.214844 L 514.914062 833.214844 L 514.914062 795.648438 L 565.460938 795.648438 L 565.460938 833.214844 " fill-opacity="1" fill-rule="nonzero"/><path fill="#e29b4c" d="M 550.183594 833.214844 L 514.914062 833.214844 L 514.914062 795.648438 L 550.183594 795.648438 L 550.183594 833.214844 " fill-opacity="1" fill-rule="nonzero"/><path fill="#d67343" d="M 537.03125 805.214844 L 528.066406 805.214844 L 528.066406 795.648438 L 537.03125 795.648438 L 537.03125 805.214844 " fill-opacity="1" fill-rule="nonzero"/><path fill="#ffffff" d="M 546.789062 828.324219 L 537.59375 828.324219 L 537.59375 820.082031 L 546.789062 820.082031 L 546.789062 828.324219 " fill-opacity="1" fill-rule="nonzero"/><path fill="#ffffff" d="M 546.789062 817.542969 L 537.59375 817.542969 L 537.59375 819.242188 L 546.789062 819.242188 L 546.789062 817.542969 " fill-opacity="1" fill-rule="nonzero"/><path fill="#8d795b" d="M 1513.472656 1090.976562 C 1513.472656 1098.816406 1329.035156 1105.1875 1101.507812 1105.1875 C 873.992188 1105.1875 689.542969 1098.816406 689.542969 1090.976562 C 689.542969 1083.121094 873.992188 1076.761719 1101.507812 1076.761719 C 1329.035156 1076.761719 1513.472656 1083.121094 1513.472656 1090.976562 " fill-opacity="1" fill-rule="nonzero"/><path fill="#a6c7c8" d="M 716.070312 1047.5625 L 1215.019531 1047.5625 L 1215.019531 824.464844 L 716.070312 824.464844 Z M 716.070312 1047.5625 " fill-opacity="1" fill-rule="nonzero"/><path fill="#6f8385" d="M 1215.019531 1047.5625 L 1407.703125 1047.5625 L 1407.703125 824.464844 L 1215.019531 824.464844 Z M 1215.019531 1047.5625 " fill-opacity="1" fill-rule="nonzero"/><path fill="#6f8385" d="M 1186.722656 835.738281 L 1186.722656 1036.285156 L 1196.933594 1036.285156 L 1196.933594 835.738281 L 1186.722656 835.738281 " fill-opacity="1" fill-rule="nonzero"/><path fill="#546264" d="M 1193.953125 835.738281 L 1193.953125 1036.285156 L 1196.933594 1036.285156 L 1196.933594 835.738281 L 1193.953125 835.738281 " fill-opacity="1" fill-rule="nonzero"/><path fill="#6f8385" d="M 1162.839844 835.738281 L 1162.839844 1036.285156 L 1173.066406 1036.285156 L 1173.066406 835.738281 L 1162.839844 835.738281 " fill-opacity="1" fill-rule="nonzero"/><path fill="#546264" d="M 1170.070312 835.738281 L 1170.070312 1036.285156 L 1173.066406 1036.285156 L 1173.066406 835.738281 L 1170.070312 835.738281 " fill-opacity="1" fill-rule="nonzero"/><path fill="#6f8385" d="M 1138.957031 1036.285156 L 1149.179688 1036.285156 L 1149.179688 835.738281 L 1138.957031 835.738281 Z M 1138.957031 1036.285156 " fill-opacity="1" fill-rule="nonzero"/><path fill="#546264" d="M 1146.1875 1036.285156 L 1149.179688 1036.285156 L 1149.179688 835.738281 L 1146.1875 835.738281 Z M 1146.1875 1036.285156 " fill-opacity="1" fill-rule="nonzero"/><path fill="#6f8385" d="M 1115.085938 1036.285156 L 1125.296875 1036.285156 L 1125.296875 835.738281 L 1115.085938 835.738281 Z M 1115.085938 1036.285156 " fill-opacity="1" fill-rule="nonzero"/><path fill="#546264" d="M 1122.316406 1036.285156 L 1125.296875 1036.285156 L 1125.296875 835.738281 L 1122.316406 835.738281 Z M 1122.316406 1036.285156 " fill-opacity="1" fill-rule="nonzero"/><path fill="#6f8385" d="M 1091.203125 835.738281 L 1091.203125 1036.285156 L 1101.414062 1036.285156 L 1101.414062 835.738281 L 1091.203125 835.738281 " fill-opacity="1" fill-rule="nonzero"/><path fill="#546264" d="M 1098.433594 835.738281 L 1098.433594 1036.285156 L 1101.414062 1036.285156 L 1101.414062 835.738281 L 1098.433594 835.738281 " fill-opacity="1" fill-rule="nonzero"/><path fill="#6f8385" d="M 1067.320312 1036.285156 L 1077.542969 1036.285156 L 1077.542969 835.738281 L 1067.320312 835.738281 Z M 1067.320312 1036.285156 " fill-opacity="1" fill-rule="nonzero"/><path fill="#546264" d="M 1074.5625 1036.285156 L 1077.542969 1036.285156 L 1077.542969 835.738281 L 1074.5625 835.738281 Z M 1074.5625 1036.285156 " fill-opacity="1" fill-rule="nonzero"/><path fill="#6f8385" d="M 1043.4375 1036.285156 L 1053.660156 1036.285156 L 1053.660156 835.738281 L 1043.4375 835.738281 Z M 1043.4375 1036.285156 " fill-opacity="1" fill-rule="nonzero"/><path fill="#546264" d="M 1050.679688 1036.285156 L 1053.660156 1036.285156 L 1053.660156 835.738281 L 1050.679688 835.738281 Z M 1050.679688 1036.285156 " fill-opacity="1" fill-rule="nonzero"/><path fill="#6f8385" d="M 1019.566406 835.738281 L 1019.566406 1036.285156 L 1029.789062 1036.285156 L 1029.789062 835.738281 L 1019.566406 835.738281 " fill-opacity="1" fill-rule="nonzero"/><path fill="#546264" d="M 1026.796875 835.738281 L 1026.796875 1036.285156 L 1029.789062 1036.285156 L 1029.789062 835.738281 L 1026.796875 835.738281 " fill-opacity="1" fill-rule="nonzero"/><path fill="#6f8385" d="M 995.683594 835.738281 L 995.683594 1036.285156 L 1005.90625 1036.285156 L 1005.90625 835.738281 L 995.683594 835.738281 " fill-opacity="1" fill-rule="nonzero"/><path fill="#546264" d="M 1002.914062 835.738281 L 1002.914062 1036.285156 L 1005.90625 1036.285156 L 1005.90625 835.738281 L 1002.914062 835.738281 " fill-opacity="1" fill-rule="nonzero"/><path fill="#6f8385" d="M 971.8125 835.738281 L 971.8125 1036.285156 L 982.023438 1036.285156 L 982.023438 835.738281 L 971.8125 835.738281 " fill-opacity="1" fill-rule="nonzero"/><path fill="#546264" d="M 979.042969 835.738281 L 979.042969 1036.285156 L 982.023438 1036.285156 L 982.023438 835.738281 L 979.042969 835.738281 " fill-opacity="1" fill-rule="nonzero"/><path fill="#6f8385" d="M 947.929688 835.738281 L 947.929688 1036.285156 L 958.140625 1036.285156 L 958.140625 835.738281 L 947.929688 835.738281 " fill-opacity="1" fill-rule="nonzero"/><path fill="#546264" d="M 955.160156 835.738281 L 955.160156 1036.285156 L 958.140625 1036.285156 L 958.140625 835.738281 L 955.160156 835.738281 " fill-opacity="1" fill-rule="nonzero"/><path fill="#6f8385" d="M 924.046875 835.738281 L 924.046875 1036.285156 L 934.269531 1036.285156 L 934.269531 835.738281 L 924.046875 835.738281 " fill-opacity="1" fill-rule="nonzero"/><path fill="#546264" d="M 931.277344 835.738281 L 931.277344 1036.285156 L 934.269531 1036.285156 L 934.269531 835.738281 L 931.277344 835.738281 " fill-opacity="1" fill-rule="nonzero"/><path fill="#6f8385" d="M 900.164062 835.738281 L 900.164062 1036.285156 L 910.386719 1036.285156 L 910.386719 835.738281 L 900.164062 835.738281 " fill-opacity="1" fill-rule="nonzero"/><path fill="#546264" d="M 907.394531 835.738281 L 907.394531 1036.285156 L 910.386719 1036.285156 L 910.386719 835.738281 L 907.394531 835.738281 " fill-opacity="1" fill-rule="nonzero"/><path fill="#6f8385" d="M 876.292969 835.738281 L 876.292969 1036.285156 L 886.503906 1036.285156 L 886.503906 835.738281 L 876.292969 835.738281 " fill-opacity="1" fill-rule="nonzero"/><path fill="#546264" d="M 883.523438 835.738281 L 883.523438 1036.285156 L 886.503906 1036.285156 L 886.503906 835.738281 L 883.523438 835.738281 " fill-opacity="1" fill-rule="nonzero"/><path fill="#6f8385" d="M 852.410156 835.738281 L 852.410156 1036.285156 L 862.621094 1036.285156 L 862.621094 835.738281 L 852.410156 835.738281 " fill-opacity="1" fill-rule="nonzero"/><path fill="#546264" d="M 859.640625 835.738281 L 859.640625 1036.285156 L 862.621094 1036.285156 L 862.621094 835.738281 L 859.640625 835.738281 " fill-opacity="1" fill-rule="nonzero"/><path fill="#6f8385" d="M 828.539062 1036.285156 L 838.75 1036.285156 L 838.75 835.738281 L 828.539062 835.738281 Z M 828.539062 1036.285156 " fill-opacity="1" fill-rule="nonzero"/><path fill="#546264" d="M 835.769531 1036.285156 L 838.75 1036.285156 L 838.75 835.738281 L 835.769531 835.738281 Z M 835.769531 1036.285156 " fill-opacity="1" fill-rule="nonzero"/><path fill="#6f8385" d="M 804.65625 1036.285156 L 814.867188 1036.285156 L 814.867188 835.738281 L 804.65625 835.738281 Z M 804.65625 1036.285156 " fill-opacity="1" fill-rule="nonzero"/><path fill="#546264" d="M 811.886719 1036.285156 L 814.867188 1036.285156 L 814.867188 835.738281 L 811.886719 835.738281 Z M 811.886719 1036.285156 " fill-opacity="1" fill-rule="nonzero"/><path fill="#6f8385" d="M 780.773438 1036.285156 L 790.996094 1036.285156 L 790.996094 835.738281 L 780.773438 835.738281 Z M 780.773438 1036.285156 " fill-opacity="1" fill-rule="nonzero"/><path fill="#546264" d="M 788.003906 1036.285156 L 790.984375 1036.285156 L 790.984375 835.738281 L 788.003906 835.738281 Z M 788.003906 1036.285156 " fill-opacity="1" fill-rule="nonzero"/><path fill="#6f8385" d="M 756.890625 1036.285156 L 767.113281 1036.285156 L 767.113281 835.738281 L 756.890625 835.738281 Z M 756.890625 1036.285156 " fill-opacity="1" fill-rule="nonzero"/><path fill="#546264" d="M 764.121094 1036.285156 L 767.113281 1036.285156 L 767.113281 835.738281 L 764.121094 835.738281 Z M 764.121094 1036.285156 " fill-opacity="1" fill-rule="nonzero"/><path fill="#6f8385" d="M 733.019531 835.738281 L 733.019531 1036.285156 L 743.230469 1036.285156 L 743.230469 835.738281 L 733.019531 835.738281 " fill-opacity="1" fill-rule="nonzero"/><path fill="#546264" d="M 740.25 835.738281 L 740.25 1036.285156 L 743.230469 1036.285156 L 743.230469 835.738281 L 740.25 835.738281 " fill-opacity="1" fill-rule="nonzero"/><path fill="#24222c" d="M 905.253906 1065.742188 L 1047.621094 1065.742188 L 1047.621094 1047.011719 L 905.253906 1047.011719 Z M 905.253906 1065.742188 " fill-opacity="1" fill-rule="nonzero"/><path fill="#1d1c24" d="M 869.007812 1047.011719 C 869.007812 1028.296875 853.824219 1013.125 835.101562 1013.125 L 768.863281 1013.125 C 750.152344 1013.125 734.96875 1028.296875 734.96875 1047.011719 L 715.992188 1047.011719 L 715.992188 1065.742188 L 905.253906 1065.742188 L 905.253906 1047.011719 L 869.007812 1047.011719 " fill-opacity="1" fill-rule="nonzero"/><path fill="#17151b" d="M 853.960938 1065.742188 L 800.445312 1065.742188 C 800.273438 1064.097656 800.179688 1062.429688 800.179688 1060.71875 C 800.179688 1040.28125 812.289062 1023.703125 827.203125 1023.703125 C 842.117188 1023.703125 854.214844 1040.28125 854.214844 1060.71875 C 854.214844 1062.429688 854.121094 1064.097656 853.960938 1065.742188 " fill-opacity="1" fill-rule="nonzero"/><path fill="#17100d" d="M 854.214844 1060.15625 C 854.214844 1062.054688 854.09375 1063.925781 853.867188 1065.742188 L 858.4375 1065.742188 C 858.4375 1079.101562 851.488281 1089.878906 844.605469 1093.378906 C 844.605469 1093.378906 833.269531 1093.378906 829.476562 1093.378906 C 815.816406 1093.378906 804.734375 1078.511719 804.734375 1060.15625 C 804.734375 1041.804688 815.816406 1026.9375 829.476562 1026.9375 L 839.433594 1027.722656 C 847.851562 1033.027344 854.214844 1046.851562 854.214844 1060.15625 " fill-opacity="1" fill-rule="nonzero"/><path fill="#1c1511" d="M 848.359375 1060.15625 C 848.359375 1078.511719 838.589844 1093.378906 826.546875 1093.378906 C 814.492188 1093.378906 804.734375 1078.511719 804.734375 1060.15625 C 804.734375 1041.804688 814.492188 1026.9375 826.546875 1026.9375 C 838.589844 1026.9375 848.359375 1041.804688 848.359375 1060.15625 " fill-opacity="1" fill-rule="nonzero"/><path fill="#a6c7c8" d="M 840.167969 1060.15625 C 840.167969 1071.621094 834.074219 1080.917969 826.546875 1080.917969 C 819.011719 1080.917969 812.914062 1071.621094 812.914062 1060.15625 C 812.914062 1048.695312 819.011719 1039.398438 826.546875 1039.398438 C 834.074219 1039.398438 840.167969 1048.695312 840.167969 1060.15625 " fill-opacity="1" fill-rule="nonzero"/><path fill="#17100d" d="M 838.496094 1060.15625 C 838.496094 1065.96875 835.394531 1070.683594 831.574219 1070.683594 C 827.765625 1070.683594 824.675781 1065.96875 824.675781 1060.15625 C 824.675781 1054.347656 827.765625 1049.632812 831.574219 1049.632812 C 835.394531 1049.632812 838.496094 1054.347656 838.496094 1060.15625 " fill-opacity="1" fill-rule="nonzero"/><path fill="#17151b" d="M 795.714844 1065.742188 L 742.1875 1065.742188 C 742.027344 1064.097656 741.945312 1062.429688 741.945312 1060.71875 C 741.945312 1040.28125 754.027344 1023.703125 768.957031 1023.703125 C 783.871094 1023.703125 795.96875 1040.28125 795.96875 1060.71875 C 795.96875 1062.429688 795.875 1064.097656 795.714844 1065.742188 " fill-opacity="1" fill-rule="nonzero"/><path fill="#17100d" d="M 795.96875 1060.15625 C 795.96875 1062.054688 795.847656 1063.925781 795.621094 1065.742188 L 800.179688 1065.742188 C 800.191406 1079.101562 793.242188 1089.878906 786.359375 1093.378906 C 786.359375 1093.378906 775.023438 1093.378906 771.230469 1093.378906 C 757.570312 1093.378906 746.492188 1078.511719 746.492188 1060.15625 C 746.492188 1041.804688 757.570312 1026.9375 771.230469 1026.9375 L 781.199219 1027.722656 C 789.605469 1033.027344 795.96875 1046.851562 795.96875 1060.15625 " fill-opacity="1" fill-rule="nonzero"/><path fill="#1c1511" d="M 790.101562 1060.15625 C 790.101562 1078.511719 780.34375 1093.378906 768.300781 1093.378906 C 756.261719 1093.378906 746.492188 1078.511719 746.492188 1060.15625 C 746.492188 1041.804688 756.261719 1026.9375 768.300781 1026.9375 C 780.34375 1026.9375 790.101562 1041.804688 790.101562 1060.15625 " fill-opacity="1" fill-rule="nonzero"/><path fill="#a6c7c8" d="M 781.921875 1060.15625 C 781.921875 1071.621094 775.8125 1080.917969 768.300781 1080.917969 C 760.777344 1080.917969 754.683594 1071.621094 754.683594 1060.15625 C 754.683594 1048.695312 760.777344 1039.398438 768.300781 1039.398438 C 775.8125 1039.398438 781.921875 1048.695312 781.921875 1060.15625 " fill-opacity="1" fill-rule="nonzero"/><path fill="#17100d" d="M 780.25 1060.15625 C 780.25 1065.96875 777.148438 1070.683594 773.339844 1070.683594 C 769.519531 1070.683594 766.417969 1065.96875 766.417969 1060.15625 C 766.417969 1054.347656 769.519531 1049.632812 773.339844 1049.632812 C 777.148438 1049.632812 780.25 1054.347656 780.25 1060.15625 " fill-opacity="1" fill-rule="nonzero"/><path fill="#17100d" d="M 1440.582031 1060.15625 C 1440.582031 1062.054688 1440.460938 1063.925781 1440.234375 1065.742188 L 1444.804688 1065.742188 C 1444.804688 1079.101562 1437.855469 1089.878906 1430.972656 1093.378906 C 1430.972656 1093.378906 1419.636719 1093.378906 1415.839844 1093.378906 C 1402.183594 1093.378906 1391.101562 1078.511719 1391.101562 1060.15625 C 1391.101562 1041.804688 1402.183594 1026.9375 1415.839844 1026.9375 L 1425.8125 1027.722656 C 1434.21875 1033.027344 1440.582031 1046.851562 1440.582031 1060.15625 " fill-opacity="1" fill-rule="nonzero"/><path fill="#b92534" d="M 1453.757812 1053.453125 L 1246.894531 1053.453125 L 1246.894531 837.394531 L 1379.714844 837.394531 C 1379.714844 837.394531 1453.757812 837.394531 1453.757812 885.871094 L 1453.757812 1053.453125 " fill-opacity="1" fill-rule="nonzero"/><path fill="#851923" d="M 1323.703125 1053.453125 L 1246.894531 1053.453125 L 1246.894531 837.394531 C 1246.894531 837.394531 1323.703125 837.394531 1323.703125 885.871094 L 1323.703125 1053.453125 " fill-opacity="1" fill-rule="nonzero"/><path fill="#b92534" d="M 1466.066406 1053.453125 L 1323.703125 1053.453125 L 1323.703125 885.871094 L 1466.066406 885.871094 L 1466.066406 1053.453125 " fill-opacity="1" fill-rule="nonzero"/><path fill="#560f14" d="M 1466.066406 1053.453125 L 1334.609375 1053.453125 L 1334.609375 997.601562 L 1466.066406 997.601562 L 1466.066406 1053.453125 " fill-opacity="1" fill-rule="nonzero"/><path fill="#2e0507" d="M 1440.582031 1016.730469 L 1366.765625 1016.730469 L 1366.765625 1014.804688 L 1440.582031 1014.804688 L 1440.582031 1016.730469 " fill-opacity="1" fill-rule="nonzero"/><path fill="#2e0507" d="M 1440.582031 1020.777344 L 1366.765625 1020.777344 L 1366.765625 1018.839844 L 1440.582031 1018.839844 L 1440.582031 1020.777344 " fill-opacity="1" fill-rule="nonzero"/><path fill="#2e0507" d="M 1440.582031 1024.8125 L 1366.765625 1024.8125 L 1366.765625 1022.886719 L 1440.582031 1022.886719 L 1440.582031 1024.8125 " fill-opacity="1" fill-rule="nonzero"/><path fill="#2e0507" d="M 1440.582031 1028.859375 L 1366.765625 1028.859375 L 1366.765625 1026.9375 L 1440.582031 1026.9375 L 1440.582031 1028.859375 " fill-opacity="1" fill-rule="nonzero"/><path fill="#2e0507" d="M 1440.582031 1032.894531 L 1366.765625 1032.894531 L 1366.765625 1030.96875 L 1440.582031 1030.96875 L 1440.582031 1032.894531 " fill-opacity="1" fill-rule="nonzero"/><path fill="#2e0507" d="M 1440.582031 1036.941406 L 1366.765625 1036.941406 L 1366.765625 1035.019531 L 1440.582031 1035.019531 L 1440.582031 1036.941406 " fill-opacity="1" fill-rule="nonzero"/><path fill="#50afb8" d="M 1466.066406 988.464844 L 1334.609375 988.464844 L 1334.609375 904.492188 L 1466.066406 904.492188 L 1466.066406 988.464844 " fill-opacity="1" fill-rule="nonzero"/><path fill="#1d1c24" d="M 1466.066406 906.949219 L 1466.066406 904.492188 L 1334.609375 904.492188 L 1334.609375 988.464844 L 1466.066406 988.464844 L 1466.066406 986.007812 L 1336.71875 986.007812 L 1336.71875 906.949219 L 1466.066406 906.949219 " fill-opacity="1" fill-rule="nonzero"/><path fill="#50afb8" d="M 1317.753906 988.464844 L 1262.917969 970.898438 L 1262.917969 904.492188 L 1317.753906 904.492188 L 1317.753906 988.464844 " fill-opacity="1" fill-rule="nonzero"/><path fill="#1d1c24" d="M 1315.644531 985.03125 L 1265.03125 968.425781 L 1265.03125 906.949219 L 1315.644531 906.949219 Z M 1262.917969 904.492188 L 1262.917969 970.898438 L 1317.753906 988.464844 L 1317.753906 904.492188 L 1262.917969 904.492188 " fill-opacity="1" fill-rule="nonzero"/><path fill="#81bcb6" d="M 1372.566406 986.007812 L 1360.269531 986.007812 L 1387 906.949219 L 1399.308594 906.949219 L 1372.566406 986.007812 " fill-opacity="1" fill-rule="nonzero"/><path fill="#81bcb6" d="M 1408.0625 986.007812 L 1380.824219 986.007812 L 1407.542969 906.949219 L 1434.808594 906.949219 L 1408.0625 986.007812 " fill-opacity="1" fill-rule="nonzero"/><path fill="#f5a127" d="M 1464.128906 1024.984375 L 1444.804688 1024.984375 L 1444.804688 1016.554688 L 1464.128906 1016.554688 L 1464.128906 1024.984375 " fill-opacity="1" fill-rule="nonzero"/><path fill="#c94955" d="M 1464.128906 1031.933594 L 1444.804688 1031.933594 L 1444.804688 1027.722656 L 1464.128906 1027.722656 L 1464.128906 1031.933594 " fill-opacity="1" fill-rule="nonzero"/><path fill="#f5a127" d="M 1362.554688 1024.984375 L 1343.214844 1024.984375 L 1343.214844 1016.554688 L 1362.554688 1016.554688 L 1362.554688 1024.984375 " fill-opacity="1" fill-rule="nonzero"/><path fill="#c94955" d="M 1362.554688 1031.933594 L 1343.214844 1031.933594 L 1343.214844 1027.722656 L 1362.554688 1027.722656 L 1362.554688 1031.933594 " fill-opacity="1" fill-rule="nonzero"/><path fill="#24222c" d="M 1466.066406 1065.742188 L 1323.703125 1065.742188 L 1323.703125 1047.011719 L 1466.066406 1047.011719 L 1466.066406 1065.742188 " fill-opacity="1" fill-rule="nonzero"/><path fill="#f5a127" d="M 1362.554688 1058.246094 L 1343.214844 1058.246094 L 1343.214844 1054.507812 L 1362.554688 1054.507812 L 1362.554688 1058.246094 " fill-opacity="1" fill-rule="nonzero"/><path fill="#f5a127" d="M 1464.128906 1058.246094 L 1444.804688 1058.246094 L 1444.804688 1054.507812 L 1464.128906 1054.507812 L 1464.128906 1058.246094 " fill-opacity="1" fill-rule="nonzero"/><path fill="#1d1c24" d="M 1262.917969 964.21875 L 1262.917969 904.492188 L 1265.03125 904.492188 L 1265.03125 965.152344 L 1262.917969 964.21875 " fill-opacity="1" fill-rule="nonzero"/><path fill="#1d1c24" d="M 1246.894531 1013.125 L 1280.789062 1013.125 C 1299.511719 1013.125 1314.679688 1028.296875 1314.679688 1047.011719 L 1246.894531 1047.011719 L 1246.894531 1013.125 " fill-opacity="1" fill-rule="nonzero"/><path fill="#1d1c24" d="M 1165.660156 1047.011719 C 1165.660156 1028.296875 1150.476562 1013.125 1131.765625 1013.125 L 1065.527344 1013.125 C 1046.804688 1013.125 1031.636719 1028.296875 1031.636719 1047.011719 L 1012.644531 1047.011719 L 1012.644531 1065.742188 L 1323.703125 1065.742188 L 1323.703125 1047.011719 L 1165.660156 1047.011719 " fill-opacity="1" fill-rule="nonzero"/><path fill="#17151b" d="M 1304.109375 1047.011719 L 1253.910156 1047.011719 C 1257.878906 1033.347656 1267.621094 1023.703125 1279.011719 1023.703125 C 1290.398438 1023.703125 1300.125 1033.347656 1304.109375 1047.011719 " fill-opacity="1" fill-rule="nonzero"/><path fill="#17151b" d="M 1305.765625 1065.742188 L 1252.238281 1065.742188 C 1252.09375 1064.097656 1251.984375 1062.429688 1251.984375 1060.71875 C 1251.984375 1055.871094 1252.667969 1051.246094 1253.910156 1047.011719 L 1304.109375 1047.011719 C 1305.339844 1051.246094 1306.019531 1055.871094 1306.019531 1060.71875 C 1306.019531 1062.429688 1305.925781 1064.097656 1305.765625 1065.742188 " fill-opacity="1" fill-rule="nonzero"/><path fill="#17100d" d="M 1306.019531 1060.15625 C 1306.019531 1062.054688 1305.898438 1063.925781 1305.671875 1065.742188 L 1310.242188 1065.742188 C 1310.242188 1079.101562 1303.292969 1089.878906 1296.410156 1093.378906 C 1296.410156 1093.378906 1285.078125 1093.378906 1281.28125 1093.378906 C 1267.621094 1093.378906 1256.542969 1078.511719 1256.542969 1060.15625 C 1256.542969 1041.804688 1267.621094 1026.9375 1281.28125 1026.9375 L 1291.253906 1027.722656 C 1299.660156 1033.027344 1306.019531 1046.851562 1306.019531 1060.15625 " fill-opacity="1" fill-rule="nonzero"/><path fill="#1c1511" d="M 1300.152344 1060.15625 C 1300.152344 1078.511719 1290.398438 1093.378906 1278.355469 1093.378906 C 1266.3125 1093.378906 1256.542969 1078.511719 1256.542969 1060.15625 C 1256.542969 1041.804688 1266.3125 1026.9375 1278.355469 1026.9375 C 1290.398438 1026.9375 1300.152344 1041.804688 1300.152344 1060.15625 " fill-opacity="1" fill-rule="nonzero"/><path fill="#a6c7c8" d="M 1291.988281 1060.15625 C 1291.988281 1071.621094 1285.878906 1080.917969 1278.355469 1080.917969 C 1270.832031 1080.917969 1264.734375 1071.621094 1264.734375 1060.15625 C 1264.734375 1048.695312 1270.832031 1039.398438 1278.355469 1039.398438 C 1285.878906 1039.398438 1291.988281 1048.695312 1291.988281 1060.15625 " fill-opacity="1" fill-rule="nonzero"/><path fill="#17100d" d="M 1290.304688 1060.15625 C 1290.304688 1065.96875 1287.203125 1070.683594 1283.394531 1070.683594 C 1279.570312 1070.683594 1276.484375 1065.96875 1276.484375 1060.15625 C 1276.484375 1054.347656 1279.570312 1049.632812 1283.394531 1049.632812 C 1287.203125 1049.632812 1290.304688 1054.347656 1290.304688 1060.15625 " fill-opacity="1" fill-rule="nonzero"/><path fill="#17151b" d="M 1150.609375 1065.742188 L 1097.097656 1065.742188 C 1096.9375 1064.097656 1096.84375 1062.429688 1096.84375 1060.71875 C 1096.84375 1040.28125 1108.9375 1023.703125 1123.855469 1023.703125 C 1138.769531 1023.703125 1150.867188 1040.28125 1150.867188 1060.71875 C 1150.867188 1062.429688 1150.773438 1064.097656 1150.609375 1065.742188 " fill-opacity="1" fill-rule="nonzero"/><path fill="#17100d" d="M 1150.867188 1060.15625 C 1150.867188 1062.054688 1150.746094 1063.925781 1150.519531 1065.742188 L 1155.089844 1065.742188 C 1155.089844 1079.101562 1148.140625 1089.878906 1141.253906 1093.378906 C 1141.253906 1093.378906 1129.921875 1093.378906 1126.125 1093.378906 C 1112.46875 1093.378906 1101.386719 1078.511719 1101.386719 1060.15625 C 1101.386719 1041.804688 1112.46875 1026.9375 1126.125 1026.9375 L 1136.097656 1027.722656 C 1144.503906 1033.027344 1150.867188 1046.851562 1150.867188 1060.15625 " fill-opacity="1" fill-rule="nonzero"/><path fill="#1c1511" d="M 1145.011719 1060.15625 C 1145.011719 1078.511719 1135.242188 1093.378906 1123.199219 1093.378906 C 1111.15625 1093.378906 1101.386719 1078.511719 1101.386719 1060.15625 C 1101.386719 1041.804688 1111.15625 1026.9375 1123.199219 1026.9375 C 1135.242188 1026.9375 1145.011719 1041.804688 1145.011719 1060.15625 " fill-opacity="1" fill-rule="nonzero"/><path fill="#a6c7c8" d="M 1136.820312 1060.15625 C 1136.820312 1071.621094 1130.722656 1080.917969 1123.199219 1080.917969 C 1115.675781 1080.917969 1109.566406 1071.621094 1109.566406 1060.15625 C 1109.566406 1048.695312 1115.675781 1039.398438 1123.199219 1039.398438 C 1130.722656 1039.398438 1136.820312 1048.695312 1136.820312 1060.15625 " fill-opacity="1" fill-rule="nonzero"/><path fill="#17100d" d="M 1135.148438 1060.15625 C 1135.148438 1065.96875 1132.0625 1070.683594 1128.238281 1070.683594 C 1124.414062 1070.683594 1121.328125 1065.96875 1121.328125 1060.15625 C 1121.328125 1054.347656 1124.414062 1049.632812 1128.238281 1049.632812 C 1132.0625 1049.632812 1135.148438 1054.347656 1135.148438 1060.15625 " fill-opacity="1" fill-rule="nonzero"/><path fill="#17151b" d="M 1092.367188 1065.742188 L 1038.851562 1065.742188 C 1038.679688 1064.097656 1038.597656 1062.429688 1038.597656 1060.71875 C 1038.597656 1040.28125 1050.695312 1023.703125 1065.609375 1023.703125 C 1080.539062 1023.703125 1092.621094 1040.28125 1092.621094 1060.71875 C 1092.621094 1062.429688 1092.527344 1064.097656 1092.367188 1065.742188 " fill-opacity="1" fill-rule="nonzero"/><path fill="#17100d" d="M 1092.621094 1060.15625 C 1092.621094 1062.054688 1092.5 1063.925781 1092.273438 1065.742188 L 1096.84375 1065.742188 C 1096.84375 1079.101562 1089.894531 1089.878906 1083.011719 1093.378906 C 1083.011719 1093.378906 1071.675781 1093.378906 1067.882812 1093.378906 C 1054.222656 1093.378906 1043.140625 1078.511719 1043.140625 1060.15625 C 1043.140625 1041.804688 1054.222656 1026.9375 1067.882812 1026.9375 L 1077.851562 1027.722656 C 1086.257812 1033.027344 1092.621094 1046.851562 1092.621094 1060.15625 " fill-opacity="1" fill-rule="nonzero"/><path fill="#1c1511" d="M 1086.765625 1060.15625 C 1086.765625 1078.511719 1077.007812 1093.378906 1064.953125 1093.378906 C 1052.914062 1093.378906 1043.140625 1078.511719 1043.140625 1060.15625 C 1043.140625 1041.804688 1052.914062 1026.9375 1064.953125 1026.9375 C 1077.007812 1026.9375 1086.765625 1041.804688 1086.765625 1060.15625 " fill-opacity="1" fill-rule="nonzero"/><path fill="#a6c7c8" d="M 1078.585938 1060.15625 C 1078.585938 1071.621094 1072.480469 1080.917969 1064.953125 1080.917969 C 1057.429688 1080.917969 1051.335938 1071.621094 1051.335938 1060.15625 C 1051.335938 1048.695312 1057.429688 1039.398438 1064.953125 1039.398438 C 1072.480469 1039.398438 1078.585938 1048.695312 1078.585938 1060.15625 " fill-opacity="1" fill-rule="nonzero"/><path fill="#17100d" d="M 1076.902344 1060.15625 C 1076.902344 1065.96875 1073.800781 1070.683594 1069.992188 1070.683594 C 1066.183594 1070.683594 1063.082031 1065.96875 1063.082031 1060.15625 C 1063.082031 1054.347656 1066.183594 1049.632812 1069.992188 1049.632812 C 1073.800781 1049.632812 1076.902344 1054.347656 1076.902344 1060.15625 " fill-opacity="1" fill-rule="nonzero"/></svg>