<svg height="500" preserveAspectRatio="xMidYMid meet" viewBox="0 0 375 374.999991" width="500" xmlns="http://www.w3.org/2000/svg" zoomAndPan="magnify"><g fill="#fff"><path d="m187.5 0c-103.394531 0-187.5 84.105469-187.5 187.5 0 58.3125 26.304688 112.152344 72.082031 147.667969 26.355469 20.734375 57.722657 33.9375 90.480469 38.117187 8.117188 1.152344 16.527344 1.714844 24.9375 1.714844s16.820312-.5625 24.722656-1.6875c32.972656-4.207031 64.339844-17.382812 90.644532-38.089844 45.855468-35.570312 72.132812-89.4375 72.132812-147.722656 0-103.394531-84.132812-187.5-187.5-187.5zm107.144531 306.910156v-18.160156c0-26.25-47.949219-47.679688-107.144531-47.679688s-107.144531 21.429688-107.144531 47.679688v18.160156c-34.042969-30.292968-53.570313-73.125-53.570313-119.410156 0-88.632812 72.082032-160.714844 160.714844-160.714844s160.714844 72.082032 160.714844 160.714844c0 46.257812-19.5 89.035156-53.570313 119.410156zm0 0"/><path d="m254.464844 147.320312c0 1.097657-.027344 2.191407-.082032 3.285157-.054687 1.097656-.132812 2.1875-.242187 3.28125-.105469 1.089843-.242187 2.175781-.402344 3.261719-.160156 1.082031-.347656 2.164062-.5625 3.238281-.210937 1.074219-.453125 2.144531-.71875 3.207031s-.558593 2.117188-.875 3.167969c-.320312 1.046875-.664062 2.085937-1.03125 3.121093-.371093 1.03125-.765625 2.050782-1.183593 3.066407-.417969 1.011719-.863282 2.011719-1.332032 3.003906-.46875.988281-.960937 1.96875-1.476562 2.933594-.519532.96875-1.058594 1.921875-1.621094 2.859375-.5625.941406-1.148438 1.867187-1.757812 2.777344-.609376.914062-1.242188 1.808593-1.894532 2.6875-.652344.882812-1.324218 1.746093-2.019531 2.59375-.695313.84375-1.414063 1.675781-2.148437 2.488281-.734376.8125-1.492188 1.605469-2.265626 2.378906-.777343.773437-1.570312 1.53125-2.382812 2.265625-.808594.738281-1.640625 1.453125-2.488281 2.148438-.847657.695312-1.710938 1.367187-2.589844 2.023437-.878906.652344-1.777344 1.28125-2.6875 1.890625s-1.835937 1.195312-2.777344 1.757812c-.9375.5625-1.890625 1.105469-2.859375 1.621094-.964844.515625-1.945312 1.007813-2.933594 1.476563-.992187.46875-1.996093.914062-3.007812 1.332031-1.011719.421875-2.035156.816406-3.066406 1.183594-1.03125.371094-2.070313.714844-3.121094 1.03125-1.046875.316406-2.101562.609375-3.167969.875-1.0625.269531-2.128906.507812-3.207031.722656-1.074219.210938-2.152344.398438-3.238281.5625-1.082031.160156-2.171875.292969-3.261719.402344-1.089844.105468-2.183594.1875-3.277344.238281-1.09375.054687-2.1875.082031-3.285156.082031s-2.191406-.027344-3.285156-.082031c-1.09375-.050781-2.1875-.132813-3.277344-.238281-1.09375-.109375-2.179688-.242188-3.261719-.402344-1.085937-.164062-2.164062-.351562-3.238281-.5625-1.078125-.214844-2.144531-.453125-3.207031-.722656-1.066407-.265625-2.121094-.558594-3.167969-.875-1.050781-.316406-2.089844-.660156-3.121094-1.03125-1.03125-.367188-2.054687-.761719-3.066406-1.183594-1.011719-.417969-2.015625-.863281-3.007812-1.332031-.988282-.46875-1.96875-.960938-2.933594-1.476563-.96875-.515625-1.921875-1.058594-2.859375-1.621094-.941407-.5625-1.867188-1.148437-2.777344-1.757812s-1.808594-1.238281-2.6875-1.890625c-.878906-.65625-1.742187-1.328125-2.589844-2.023437-.847656-.695313-1.679687-1.410157-2.488281-2.148438-.8125-.734375-1.605469-1.492188-2.382812-2.265625-.773438-.773437-1.53125-1.566406-2.265626-2.378906-.734374-.8125-1.453124-1.644531-2.148437-2.488281-.695313-.847657-1.367187-1.710938-2.019531-2.59375-.652344-.878907-1.285156-1.773438-1.894532-2.6875-.609374-.910157-1.195312-1.835938-1.757812-2.777344-.5625-.9375-1.101562-1.890625-1.621094-2.859375-.515625-.964844-1.007812-1.945313-1.476562-2.933594-.46875-.992187-.914063-1.992187-1.332032-3.003906-.417968-1.015625-.8125-2.035157-1.183593-3.066407-.367188-1.035156-.710938-2.074218-1.03125-3.121093-.316407-1.050781-.609375-2.105469-.875-3.167969s-.507813-2.132812-.71875-3.207031c-.214844-1.074219-.402344-2.15625-.5625-3.238281-.160157-1.085938-.296875-2.171876-.402344-3.261719-.109375-1.09375-.1875-2.183594-.242187-3.28125-.054688-1.09375-.082032-2.1875-.082032-3.285157 0-1.09375.027344-2.191406.082032-3.285156.054687-1.09375.132812-2.1875.242187-3.277344.105469-1.089843.242187-2.179687.402344-3.261718.160156-1.085938.347656-2.164063.5625-3.238282.210937-1.074218.453125-2.144531.71875-3.207031s.558593-2.121093.875-3.167969c.320312-1.046874.664062-2.089843 1.03125-3.121093.371093-1.03125.765625-2.054688 1.183593-3.066407.417969-1.011718.863282-2.015624 1.332032-3.003906.46875-.992187.960937-1.96875 1.476562-2.9375.519532-.964844 1.058594-1.917968 1.621094-2.859375.5625-.941406 1.148438-1.867187 1.757812-2.777343.609376-.910157 1.242188-1.804688 1.894532-2.6875.652344-.878907 1.324218-1.742188 2.019531-2.589844s1.414063-1.675782 2.148437-2.488282c.734376-.8125 1.492188-1.605468 2.265626-2.382812.777343-.773438 1.570312-1.527344 2.382812-2.265625.808594-.734375 1.640625-1.449219 2.488281-2.144531.847657-.695313 1.710938-1.371094 2.589844-2.023438s1.777344-1.285156 2.6875-1.890625c.910156-.609375 1.835937-1.195312 2.777344-1.761719.9375-.5625 1.890625-1.101562 2.859375-1.617187.964844-.519531 1.945312-1.011719 2.933594-1.480469.992187-.46875 1.996093-.910156 3.007812-1.332031 1.011719-.417969 2.035156-.8125 3.066406-1.179687 1.03125-.371094 2.070313-.714844 3.121094-1.03125 1.046875-.320313 2.101562-.613282 3.167969-.878907 1.0625-.265625 2.128906-.503906 3.207031-.71875 1.074219-.214843 2.152344-.402343 3.238281-.5625 1.082031-.160156 2.171875-.296875 3.261719-.402343 1.089844-.109376 2.183594-.1875 3.277344-.242188s2.1875-.082031 3.285156-.082031 2.191406.027343 3.285156.082031 2.1875.132812 3.277344.242188c1.089844.105468 2.179688.242187 3.261719.402343 1.085937.160157 2.164062.347657 3.238281.5625 1.078125.214844 2.144531.453125 3.207031.71875 1.066407.265625 2.121094.558594 3.167969.878907 1.050781.316406 2.089844.660156 3.121094 1.03125 1.03125.367187 2.054687.761718 3.066406 1.179687 1.011719.421875 2.015625.863281 3.007812 1.332031.988282.46875 1.96875.960938 2.933594 1.480469.96875.515625 1.921875 1.054687 2.859375 1.617187.941407.566407 1.867188 1.152344 2.777344 1.761719.910156.605469 1.808594 1.238281 2.6875 1.890625s1.742187 1.328125 2.589844 2.023438c.847656.695312 1.679687 1.410156 2.488281 2.144531.8125.738281 1.605469 1.492187 2.382812 2.265625.773438.777344 1.53125 1.570312 2.265626 2.382812.734374.8125 1.453124 1.640626 2.148437 2.488282s1.367187 1.710937 2.019531 2.589844c.652344.882812 1.285156 1.777343 1.894532 2.6875.609374.910156 1.195312 1.835937 1.757812 2.777343.5625.941407 1.101562 1.894531 1.621094 2.859375.515625.96875 1.007812 1.945313 1.476562 2.9375.46875.988282.914063 1.992188 1.332032 3.003906.417968 1.011719.8125 2.035157 1.183593 3.066407.367188 1.03125.710938 2.074219 1.03125 3.121093.316407 1.046876.609375 2.105469.875 3.167969s.507813 2.132813.71875 3.207031c.214844 1.074219.402344 2.152344.5625 3.238282.160157 1.082031.296875 2.171875.402344 3.261718.109375 1.089844.1875 2.183594.242187 3.277344.054688 1.09375.082032 2.191406.082032 3.285156zm0 0"/></g></svg>