<?xml version="1.0" standalone="no"?>
<!DOCTYPE svg PUBLIC "-//W3C//DTD SVG 20010904//EN"
 "http://www.w3.org/TR/2001/REC-SVG-20010904/DTD/svg10.dtd">
<svg version="1.0" xmlns="http://www.w3.org/2000/svg"
 width="500.000000pt" height="500.000000pt" viewBox="0 0 500.000000 500.000000"
 preserveAspectRatio="xMidYMid meet">

<g transform="translate(0.000000,500.000000) scale(0.100000,-0.100000)"
fill="#000000" stroke="none">
<path d="M863 3284 c-20 -8 -16 -75 5 -90 24 -18 110 -18 128 1 10 9 14 29 12
52 l-3 38 -65 2 c-36 1 -71 -1 -77 -3z"/>
<path d="M1140 3261 c-5 -11 -10 -40 -10 -64 0 -25 -11 -84 -25 -132 -14 -48
-24 -93 -22 -99 7 -18 55 94 72 169 9 39 26 80 37 92 17 19 19 25 8 38 -17 21
-47 19 -60 -4z"/>
<path d="M641 3194 c0 -11 3 -14 6 -6 3 7 2 16 -1 19 -3 4 -6 -2 -5 -13z"/>
<path d="M715 3173 c-11 -3 -27 -12 -36 -20 -10 -8 -45 -18 -80 -23 -75 -11
-89 -25 -89 -91 0 -62 7 -79 35 -79 12 0 28 -7 35 -15 12 -14 15 -14 30 0 20
18 51 20 68 3 10 -10 18 -9 40 4 26 15 31 16 50 2 20 -14 24 -13 47 3 23 16
25 24 22 68 -5 65 -32 122 -68 140 -15 8 -29 14 -31 14 -2 -1 -12 -4 -23 -6z
m-75 -72 c0 -12 -33 -39 -61 -49 -44 -17 -83 24 -43 46 20 11 104 13 104 3z"/>
<path d="M1257 2980 c-6 -24 8 -36 17 -14 8 22 7 34 -3 34 -5 0 -11 -9 -14
-20z"/>
<path d="M1036 2978 c3 -5 10 -6 15 -3 13 9 11 12 -6 12 -8 0 -12 -4 -9 -9z"/>
<path d="M889 2953 c-13 -16 -12 -17 4 -4 9 7 17 15 17 17 0 8 -8 3 -21 -13z"/>
<path d="M401 2925 c-10 -11 -31 -39 -46 -63 -28 -42 -28 -44 -12 -72 32 -54
19 -91 -44 -117 -24 -10 -26 -18 -32 -84 -6 -74 1 -99 29 -99 19 0 44 -40 44
-70 0 -14 -9 -33 -20 -43 -26 -22 -25 -40 8 -107 26 -52 30 -55 71 -61 59 -8
85 -38 76 -90 -6 -35 -5 -38 52 -78 62 -44 83 -50 103 -26 14 17 57 20 79 6 8
-5 22 -24 30 -43 16 -32 19 -33 91 -41 66 -7 76 -6 85 9 35 62 87 81 120 44
25 -27 45 -25 115 10 55 28 60 33 60 64 0 19 9 45 21 60 19 24 26 26 63 21 40
-6 42 -5 74 40 31 44 32 48 15 61 -10 7 -22 14 -26 14 -4 0 -21 15 -38 32
l-29 32 0 -64 c0 -63 -1 -66 -35 -87 -19 -13 -49 -23 -66 -23 -17 0 -55 -13
-83 -29 -73 -42 -148 -61 -235 -61 -85 0 -164 18 -217 49 -19 12 -44 21 -56
21 -32 0 -78 33 -84 60 -3 14 -9 32 -14 40 -6 8 -22 35 -37 59 -43 71 -63 145
-63 236 0 93 19 166 61 242 22 41 29 66 29 108 0 30 5 55 10 55 6 0 10 3 10 8
0 4 -21 7 -46 7 -33 0 -50 -6 -63 -20z"/>
<path d="M1280 2863 l0 -38 62 -12 c35 -7 66 -9 70 -5 4 4 -2 23 -13 41 -17
28 -24 32 -48 28 -17 -4 -37 0 -50 9 -20 15 -21 14 -21 -23z"/>
<path d="M4025 2756 c-22 -7 -50 -18 -63 -25 -18 -9 -32 -9 -74 4 -64 19 -168
19 -212 1 -52 -22 -79 -63 -73 -111 10 -75 100 -113 157 -67 19 16 21 21 11
41 -7 12 -10 30 -6 40 10 32 81 53 113 32 10 -6 8 -16 -10 -47 -19 -32 -23
-53 -23 -121 0 -74 3 -85 30 -124 54 -76 90 -88 237 -74 l77 8 6 66 c4 36 11
83 15 104 l8 37 -63 0 c-71 0 -68 2 -80 -82 -7 -53 -10 -55 -43 -32 -33 23
-52 67 -52 123 0 67 17 104 44 96 109 -32 161 -30 196 5 44 44 10 110 -64 129
-55 14 -80 13 -131 -3z m105 -77 c0 -6 -18 -9 -42 -7 -46 3 -54 19 -16 29 25
6 58 -6 58 -22z"/>
<path d="M4460 2690 c-109 -20 -178 -116 -168 -234 8 -97 72 -156 170 -156 67
0 121 30 162 88 59 83 44 228 -28 275 -34 23 -94 34 -136 27z m77 -87 c27 -66
6 -178 -45 -235 -42 -48 -88 3 -86 97 2 139 91 232 131 138z"/>
</g>
</svg>
